<?xml version="1.0" standalone="no"?>
<!DOCTYPE svg PUBLIC "-//W3C//DTD SVG 1.1//EN" "http://www.w3.org/Graphics/SVG/1.1/DTD/svg11.dtd" >
<svg xmlns="http://www.w3.org/2000/svg">
<metadata>
Created by FontForge 20120731 at Fri Apr 28 15:25:54 2017
 By admin
</metadata>
<defs>
<font id="iconfont" horiz-adv-x="1024" >
  <font-face 
    font-family="iconfont"
    font-weight="500"
    font-stretch="normal"
    units-per-em="1024"
    panose-1="2 0 6 3 0 0 0 0 0 0"
    ascent="896"
    descent="-128"
    x-height="792"
    bbox="0 -212 8283 896.136"
    underline-thickness="0"
    underline-position="0"
    unicode-range="U+0078-E7C3"
  />
<missing-glyph 
 />
    <glyph glyph-name=".notdef" 
 />
    <glyph glyph-name=".notdef" 
 />
    <glyph glyph-name=".null" horiz-adv-x="0" 
 />
    <glyph glyph-name="nonmarkingreturn" horiz-adv-x="341" 
 />
    <glyph glyph-name="x" unicode="x" horiz-adv-x="1001" 
d="M281 543q-27 -1 -53 -1h-83q-18 0 -36.5 -6t-32.5 -18.5t-23 -32t-9 -45.5v-76h912v41q0 16 -0.5 30t-0.5 18q0 13 -5 29t-17 29.5t-31.5 22.5t-49.5 9h-133v-97h-438v97zM955 310v-52q0 -23 0.5 -52t0.5 -58t-10.5 -47.5t-26 -30t-33 -16t-31.5 -4.5q-14 -1 -29.5 -0.5
t-29.5 0.5h-32l-45 128h-439l-44 -128h-29h-34q-20 0 -45 1q-25 0 -41 9.5t-25.5 23t-13.5 29.5t-4 30v167h911zM163 247q-12 0 -21 -8.5t-9 -21.5t9 -21.5t21 -8.5q13 0 22 8.5t9 21.5t-9 21.5t-22 8.5zM316 123q-8 -26 -14 -48q-5 -19 -10.5 -37t-7.5 -25t-3 -15t1 -14.5
t9.5 -10.5t21.5 -4h37h67h81h80h64h36q23 0 34 12t2 38q-5 13 -9.5 30.5t-9.5 34.5q-5 19 -11 39h-368zM336 498v228q0 11 2.5 23t10 21.5t20.5 15.5t34 6h188q31 0 51.5 -14.5t20.5 -52.5v-227h-327z" />
    <glyph glyph-name="jiantou" unicode="&#xe600;" horiz-adv-x="1000" 
d="M607 -57l312 313q18 18 18 44t-18 44l-312 313q-19 18 -44.5 18t-44 -18.5t-18.5 -44t18 -44.5l206 -206h-599q-26 0 -44.5 -18t-18.5 -44t18.5 -44t44.5 -18h599l-206 -206q-18 -19 -18 -44.5t18.5 -44t44 -18.5t44.5 18z" />
    <glyph glyph-name="dingwei" unicode="&#xe62f;" 
d="M513 674q-100 0 -185 -49.5t-134.5 -134.5t-49.5 -186q0 -100 49.5 -184.5t134.5 -134t185 -49.5t184.5 49.5t133.5 134t49 184.5q0 101 -49 186t-133.5 134.5t-184.5 49.5v0zM556 2q1 3 1 11v76q0 18 -13 31t-31 13q-19 0 -31.5 -13t-12.5 -31v-76q0 -8 1 -11
q-104 15 -176.5 89t-84.5 176q9 -3 16 -3h76q18 0 31.5 13t13.5 31t-13.5 31.5t-31.5 13.5h-76q-7 0 -15 -3q14 100 86.5 171.5t173.5 87.5q-1 -4 -1 -12v-74q0 -19 12.5 -31.5t31.5 -12.5q18 0 31 13t13 31v74q0 8 -1 12q100 -16 172 -87t87 -171q-10 2 -13 2h-76
q-18 0 -31 -13.5t-13 -31.5t13 -31t31 -13h76q4 0 14 2q-13 -101 -85.5 -175t-174.5 -89z" />
    <glyph glyph-name="youxiang" unicode="&#xe61d;" 
d="M512 181l416 347q-1 0 -3.5 0.5t-3.5 0.5h-818q-1 0 -3.5 -0.5t-3.5 -0.5zM958 492q0 4 -2 11l-295 -246l295 -295q2 7 2 9v521zM68 503q-2 -7 -2 -11v-521q0 -1 2 -9l295 295zM633 234l-109 -91q-5 -4 -12 -4t-12 4l-108 90l-298 -297q7 -2 9 -2h818q2 0 9 2z" />
    <glyph glyph-name="question" unicode="&#xe63f;" 
d="M954 304q0 -90 -35 -172t-94 -141.5t-141.5 -94.5t-172.5 -35t-172 35t-141.5 94.5t-94.5 141.5t-35 172t35 172.5t94.5 141.5t141.5 94t172 35t172.5 -35t141.5 -94t94 -141.5t35 -172.5zM652.5 496q-11.5 23 -33 40t-52 26t-68.5 9q-32 0 -62.5 -7t-52.5 -19v-54
q23 11 52 18.5t60 7.5q23 0 41.5 -5t32 -15t21 -24t7.5 -32q0 -15 -4 -26.5t-11.5 -22t-17 -19t-20.5 -17.5q-16 -12 -32.5 -25t-30.5 -30t-22 -39t-8 -50q0 -6 1 -18h55v7q0 20 6 37t15.5 30t22.5 24.5t26 21.5q16 13 31 25t27.5 27.5t20 34.5t7.5 43q0 29 -11.5 52z
M504 20v79h-62v-79h62z" />
    <glyph glyph-name="shishijiance" unicode="&#xe6e6;" 
d="M957 317q-4 114 -62 211t-155 155t-211 62v1h-33v-1q-115 -4 -212 -62t-155 -155t-62 -211h-1v-16v-1v-1v-15h1q4 -115 62 -212t155 -155t212 -62v-1h15h0.5h0.5h0.5h0.5h16v1q114 4 211 62t155 155t62 212h1v33h-1zM496 -113q-106 4 -196 57.5t-143.5 143.5t-57.5 196
h127q6 -109 83.5 -186.5t186.5 -83.5v-127zM496 46q-96 6 -164 74t-74 164h128q6 -43 36.5 -73.5t73.5 -36.5v-128zM496 206q-30 5 -51.5 26.5t-26.5 51.5h78v-78zM496 317h-78q5 29 26.5 50.5t51.5 26.5v-77zM496 426q-43 -6 -73.5 -36.5t-36.5 -72.5h-128q5 68 43 126
q17 -11 37 -11q27 0 46.5 19t19.5 47q0 15 -7 29q46 24 99 27v-128zM496 586q-64 -4 -120 -34q-18 12 -38 12q-28 0 -47 -19.5t-19 -46.5q0 -17 7 -31q-48 -68 -53 -150h-127q4 105 57.5 195t143.5 143.5t196 57.5v-127zM529 554q82 -5 145.5 -58.5t83.5 -132.5
q-35 -10 -45 -46h-75q-6 42 -36.5 72.5t-72.5 36.5v128zM529 394q29 -5 50.5 -26.5t26.5 -50.5h-77v77zM529 284h77q-5 -30 -26.5 -51.5t-50.5 -26.5v78zM529 174q42 6 72.5 36.5t36.5 73.5h75q10 -37 45 -47q-20 -79 -83.5 -132.5t-145.5 -58.5v128zM529 -113v127
q95 6 168 67.5t94 153.5q18 4 32 17t18 32h84q-4 -106 -57.5 -196t-143.5 -143.5t-195 -57.5zM841 317q-4 18 -18 31t-32 17q-21 92 -94 153.5t-168 67.5v127q105 -4 195 -57.5t143.5 -143.5t57.5 -195h-84z" />
    <glyph glyph-name="mima" unicode="&#xe65e;" 
d="M763 357v148q0 101 -72 173t-173 72h-2.5h-2.5h-2.5h-1.5q-102 0 -174 -72t-72 -173v-148h-86v-507h675v507h-89zM591 -57h-153l37 164q-37 22 -37 66q0 31 22.5 53.5t54 22.5t54 -22.5t22.5 -53.5q0 -44 -38 -66zM640 357h-254v148q0 50 36 86t87 36h6h3q50 0 86 -36
t36 -86v-148z" />
    <glyph glyph-name="show" unicode="&#xe68a;" 
d="M512 608q-165 0 -302 -87.5t-210 -232.5q73 -145 210 -232.5t302 -87.5t302 87.5t210 232.5q-73 145 -210 232.5t-302 87.5zM764 438q92 -58 150 -150q-58 -92 -150 -150q-115 -74 -252 -74t-252 74q-92 58 -150 150q58 92 150 150q5 4 11 8q-15 -43 -15 -88
q0 -106 75 -181t181 -75t181 75t75 181q0 45 -15 88q6 -4 11 -8v0zM512 390q0 -40 -28 -68t-68 -28t-68 28t-28 68t28 68t68 28t68 -28t28 -68z" />
    <glyph glyph-name="hide" unicode="&#xe68b;" 
d="M839 504q119 -85 185 -216q-73 -145 -210 -232.5t-302 -87.5q-92 0 -179 29l78 78q50 -11 101 -11q137 0 252 74q92 58 150 150q-56 89 -144 146zM512 102q-34 0 -66 9l313 313q9 -32 9 -66q0 -106 -75 -181t-181 -75zM960 800h-54l-219 -220q-85 28 -175 28
q-165 0 -302 -87.5t-210 -232.5q65 -129 181 -213l-181 -181v-54h54l906 906v54zM416 486q36 0 63 -23.5t32 -57.5l-110 -110q-34 5 -57.5 32t-23.5 63q0 40 28 68t68 28zM110 288q58 92 150 150q5 4 11 8q-15 -43 -15 -88q0 -87 53 -156l-59 -58q-85 57 -140 144z" />
    <glyph glyph-name="dianhua" unicode="&#xe61e;" 
d="M949 29l-196 116q-8 4 -18 2.5t-16 -7.5l-57 -58q-15 -15 -36 -15q-3 0 -9 0.5t-26 8t-42.5 20.5t-59 41t-74.5 66.5t-66.5 74.5t-41.5 59t-20 43t-8 26t-1 9q1 20 15 35l49 49q7 6 8.5 16t-1.5 18l-109 204q-3 8 -10 9t-13 -5l-134 -134q-15 -15 -18 -35q0 -4 -0.5 -12
t2 -33.5t9.5 -53.5t24.5 -71t43 -87t69.5 -100.5t100 -112.5t112.5 -100t101.5 -69.5t86.5 -43.5t71.5 -24.5t53 -9.5t34 -2.5l11 0.5q21 3 36 18l134 134q6 6 4.5 13t-8.5 11z" />
    <glyph glyph-name="fangdajing" unicode="&#xe605;" 
d="M870 12l-176 176l-6 6q47 72 47 159q0 120 -85.5 205.5t-206.5 85.5t-206.5 -85.5t-85.5 -206t85.5 -206t206.5 -85.5q86 0 159 47q3 -5 5 -7l177 -176q17 -18 42.5 -18t43.5 18t18 43.5t-18 43.5zM443 153q-83 0 -141.5 58.5t-58.5 141t58.5 141t141 58.5t141.5 -58.5
t59 -141t-59 -141t-141 -58.5v0z" />
    <glyph glyph-name="gth" unicode="&#xe624;" 
d="M492 -13h59l-59 59v-59zM747 339h-450q-8 0 -14 -5.5t-6 -14t6 -14t14 -5.5h450q8 0 13.5 5.5t5.5 14t-5.5 14t-13.5 5.5zM688 222l-176 -157l59 -58l176 156q29 29 -0.5 58.5t-58.5 0.5zM805 750h-586q-41 0 -69.5 -29t-28.5 -69v-704q0 -40 28.5 -69t69.5 -29h586
q41 0 69.5 29t28.5 69v704q0 40 -28.5 69t-69.5 29zM864 -32q0 -33 -23 -56t-55 -23h-548q-32 0 -55 23t-23 56v664q0 33 23 56t55 23h548q32 0 55 -23t23 -56v-664zM747 456h-450q-8 0 -14 -5.5t-6 -13.5t6 -14t14 -6h450q8 0 13.5 6t5.5 14t-5.5 13.5t-13.5 5.5zM747 593
h-450q-8 0 -14 -5.5t-6 -13.5t6 -14t14 -6h450q8 0 13.5 6t5.5 14t-5.5 13.5t-13.5 5.5zM414 222h-117q-8 0 -14 -6t-6 -14t6 -13.5t14 -5.5h117q8 0 14 5.5t6 13.5t-6 14t-14 6z" />
    <glyph glyph-name="xiangzuo" unicode="&#xe758;" 
d="M745 669q13 14 13 33t-13.5 32.5t-32.5 13.5t-32 -14l-396 -401q-14 -14 -14 -33t14 -33l396 -401q14 -14 32.5 -14t32 13.5t13.5 32.5t-13 33l-351 369l351 369v0v0zM745 669z" />
    <glyph glyph-name="gou" unicode="&#xe686;" 
d="M800 567l-413 -413l-163 163q-18 18 -44 18t-44.5 -18t-18.5 -44t19 -44l195 -196q20 -20 56 -18q36 -2 56 18l445 445q19 19 19 44.5t-18.5 44t-44.5 18.5t-44 -18z" />
    <glyph glyph-name="tuichu" unicode="&#xe606;" 
d="M172 292v-342q0 -18 14 -31t33 -13h237q20 0 33.5 13t13.5 31.5t-13.5 31.5t-33.5 13h-189v594h189q20 0 33.5 13t13.5 31.5t-13.5 31.5t-33.5 13h-237q-19 0 -33 -13t-14 -31v-342v0v0zM856 324q15 -13 15 -33t-15 -33v0l-149 -134v0q-13 -11 -30 -11q-19 0 -32 13
t-13 31q0 20 15 33v0l63 56h-272v0q-19 0 -32 13.5t-13 32t13 31.5t32 13v0h272l-63 56v0q-15 13 -15 33q0 18 13 31t32 13q17 0 30 -11v0l149 -134v0z" />
    <glyph glyph-name="xiazai" unicode="&#xe6a2;" 
d="M929 -84v0h-834v0q-13 0 -22.5 -9.5t-9.5 -23t9.5 -23t22.5 -9.5v0h834v0q13 0 22.5 9.5t9.5 23t-9.5 23t-22.5 9.5zM488 -15q10 -9 23 -9v0v0q14 0 24 9l357 358q10 10 10 23.5t-9.5 23t-23.5 10t-24 -9.5l-300 -301l-1 626v0q0 14 -9.5 24t-23 10t-23.5 -10t-10 -24v0
v-626l-301 301q-9 9 -23 9t-23.5 -9.5t-9.5 -23.5t10 -23z" />
    <glyph glyph-name="ok" unicode="&#xe615;" 
d="M150 436l362 -362l-90 -91l-363 362zM331 74l543 543l91 -91l-544 -543z" />
    <glyph glyph-name="block" unicode="&#xe646;" 
d="M63 749h895v-895h-895v895z" />
    <glyph glyph-name="calendar" unicode="&#xe654;" 
d="M110 -139h164v165h-164v-165zM311 -139h183v165h-183v-165zM110 62h164v183h-164v-183zM311 62h183v183h-183v-183zM110 282h164v164h-164v-164zM530 -139h183v165h-183v-165zM311 282h183v164h-183v-164zM750 -139h164v165h-164v-165zM530 62h183v183h-183v-183z
M329 556v165q0 7 -5.5 12.5t-12.5 5.5h-37q-7 0 -12.5 -5.5t-5.5 -12.5v-165q0 -7 5.5 -12.5t12.5 -5.5h37q7 0 12.5 5.5t5.5 12.5zM750 62h164v183h-164v-183zM530 282h183v164h-183v-164zM750 282h164v164h-164v-164zM768 556v165q0 7 -5.5 12.5t-12.5 5.5h-37
q-7 0 -12.5 -5.5t-5.5 -12.5v-165q0 -7 5.5 -12.5t12.5 -5.5h37q7 0 12.5 5.5t5.5 12.5zM987 593v-732q0 -30 -21.5 -51.5t-51.5 -21.5h-804q-30 0 -51.5 21.5t-21.5 51.5v732q0 29 21.5 51t51.5 22h73v55q0 37 27 64t64 27h37q38 0 64.5 -27t26.5 -64v-55h220v55
q0 37 26.5 64t64.5 27h37q37 0 64 -27t27 -64v-55h73q30 0 51.5 -22t21.5 -51z" />
    <glyph glyph-name="iconfontcolor58" unicode="&#xe6ad;" 
d="M1000 -164h-952v952q0 10 -7 17t-17 7t-17 -7t-7 -17v-976q0 -10 7 -17t17 -7h976q10 0 17 7t7 17t-7 17t-17 7zM1024 621q0 27 -18.5 45.5t-45.5 18.5t-45.5 -18.5t-18.5 -45.5q0 -31 26 -51l-102 -301h-1.5h-1.5q-22 0 -40 -14l-124 110q4 11 4 23q0 27 -18.5 45.5
t-45 18.5t-45.5 -18.5t-19 -45.5t19 -45l-79 -214h-1.5h-2.5q-15 0 -30 -7l-36 29q2 8 2 16q0 26 -18.5 45t-45 19t-45.5 -19t-19 -45q0 -17 9 -33l-131 -135q-10 2 -18 2q-26 0 -45 -18.5t-19 -45t19 -45.5t45.5 -19t45 19t18.5 45q0 17 -8 32l132 136q9 -2 16 -2
q18 0 34 9l34 -27q-4 -11 -4 -20q0 -26 19 -45t45.5 -19t45 19t18.5 45q0 25 -16 43l80 216v0v0q14 0 27 6l134 -119l-0.5 -2.5t-0.5 -3.5q0 -26 19 -45t45.5 -19t45 19t18.5 45q0 25 -17 44l104 309q24 3 40 21t16 42z" />
    <glyph glyph-name="baogao" unicode="&#xe6a0;" 
d="M121 578v52h782v-52h-782v0zM121 -51v53h782v-53h-782v0zM199 499v53h52v-53h-52v0zM277 499v53h52v-53h-52v0zM355 499v53h53v-53h-53v0zM199 80v262h209v-262h-209v0zM355 290h-104v-157h104v157v0zM460 290v52h182v-52h-182v0zM95 421v209h834v-209h-834v0zM877 578
h-730v-105h730v105v0zM95 -51v393h52v-340h730v366h52v-419h-834v0zM460 290v52h182v-52h-182v0zM460 185v52h365v-52h-365v0zM460 80v53h365v-53h-365v0z" />
    <glyph glyph-name="kaishi" unicode="&#xe608;" 
d="M512 812q-104 0 -199 -40.5t-163.5 -109t-109 -163.5t-40.5 -199t40.5 -199t109 -163.5t163.5 -109t199 -40.5t199 40.5t163.5 109t109 163.5t40.5 199t-40.5 199t-109 163.5t-163.5 109t-199 40.5zM512 -148q-91 0 -174 35.5t-143 95.5t-95.5 143t-35.5 174t35.5 174
t95.5 143t143 95.5t174 35.5t174 -35.5t143 -95.5t95.5 -143t35.5 -174t-35.5 -174t-95.5 -143t-143 -95.5t-174 -35.5zM378 490h63v-388h-63v388zM571 490h62v-388h-62v388z" />
    <glyph glyph-name="xiangyou" unicode="&#xe692;" 
d="M231 785q0 -20 19 -36q10 -8 32 -26t33 -28q7 -6 25 -21t26 -22l58 -49q3 -2 7.5 -6t6.5 -6q37 -31 40 -33l47 -40q1 0 2 -1l2 -2l98 -82q56 -46 58 -49l-3 -3l-7 -6q-5 -4 -13.5 -11t-12 -10.5t-14 -11.5t-15.5 -13q-4 -4 -12.5 -10.5t-9.5 -7.5l-327 -274
q-27 -21 -33.5 -32t-5.5 -25t9 -24q22 -27 58 -19q9 2 17 7.5t17.5 14t13.5 11.5l114 95l2 2l2 2q5 4 14 11.5t13 10.5l61 51q4 4 19 16.5l21 17.5l17 15q10 7 31 25t30 26q2 1 5 3.5t4 3.5l61 52l9 7l13 11q1 0 2.5 1.5l2.5 2.5l17 14q2 2 9 7.5t9.5 8t6 8t5.5 11.5
q5 18 -2.5 31t-24.5 26l-57 48q-6 4 -17.5 14t-17.5 15l-18 15q-3 3 -14 11.5t-16 13.5l-66 55q-1 1 -9 8q-3 2 -8.5 7t-8.5 7q-1 1 -7.5 6.5t-10.5 8.5q-1 1 -4 3.5t-5 3.5l-35 30q-6 5 -9 8q-1 0 -2 1l-2 2t-5 4l-3 3t-5 4l-27 22q-1 1 -4 3.5t-4 3.5l-18 15q-4 4 -13 11
t-13 11l-71 59q-5 4 -10 6q-28 11 -52.5 -3t-24.5 -40v0z" />
    <glyph glyph-name="icon" unicode="&#xe602;" 
d="M960 486l-69 69l-379 -382l-379 382l-69 -69l438 -441h20z" />
    <glyph glyph-name="xiazai1" unicode="&#xe631;" 
d="M478 79q11 -10 26 -10t25 10l335 329q11 11 11.5 26.5t-11.5 25.5q-17 13 -34.5 13t-27.5 -7l-9 -6l-267 -262q-9 -9 -22.5 -9t-22.5 9l-248 259q-3 3 -9 7.5t-24.5 5.5t-37.5 -13q-11 -10 -11 -25.5t11 -26.5zM511.5 290q20.5 0 34.5 14.5t14 34.5v365q0 20 -14 34.5
t-34.5 14.5t-35 -14.5t-14.5 -34.5v-365q0 -20 14.5 -34.5t35 -14.5zM1023 95q0 18 -13 31t-31 13t-31 -13t-13 -31v-136h-847v136q0 18 -13 31t-31 13t-31 -13t-13 -31v-180v0q0 -18 13 -31v0q1 -2 5.5 -3t5.5 -2q15 -8 20 -8v0h935v0q18 0 31 13t13 31v0v180z" />
    <glyph glyph-name="iconfonticonfontclose" unicode="&#xe607;" 
d="M557 287l266 264q9 9 9 22t-9.5 22.5t-22.5 9.5t-23 -9l-265 -264l-263 264q-9 9 -22.5 9t-23 -9t-9.5 -22.5t10 -22.5l263 -264l-265 -264q-10 -9 -10 -22.5t9.5 -22.5t22.5 -9t23 9l265 264l265 -267q10 -9 23 -9t22.5 9.5t9.5 22.5t-9 23z" />
    <glyph glyph-name="icon4" unicode="&#xe62c;" 
d="M468 302v0q0 -23 16 -39t39 -16t39 16t16 39v0q0 23 -16 39t-39 16t-39 -16t-16 -39zM875 338q-13 125 -100.5 214.5t-211.5 105.5v79h-81v-77q-128 -12 -219.5 -103t-105.5 -219h-89v-81h90q15 -126 106.5 -215t217.5 -101v-93h81v95q122 16 209.5 104t101.5 210h82v81
h-81zM803 257q-14 -93 -80.5 -160.5t-159.5 -82.5v138h-81v-140q-97 11 -168 79.5t-85 165.5h143v81h-144q13 99 84 169.5t170 81.5v-138h81v136q95 -15 162 -84.5t79 -164.5h-133v-81h132z" />
    <glyph glyph-name="yuandian" unicode="&#xe64c;" 
d="M677 300.5q0 -68.5 -49 -117t-117.5 -48.5t-117 48.5t-48.5 117t48.5 117t117 48.5t117.5 -48.5t49 -117zM512 -145q-91 0 -174 35q-81 34 -143 96t-96 142q-35 84 -35 175t35 174q34 80 96 142t143 96q83 35 174 35t174 -35q80 -34 142 -96t96 -142q36 -83 36 -174
t-36 -175q-34 -80 -96 -142t-142 -96q-83 -35 -174 -35zM511.5 699q-107.5 0 -199 -53t-144.5 -144.5t-53 -199t53 -199t144.5 -144.5t199 -53t199 53t145 144.5t53.5 199t-53.5 199t-145 144.5t-199 53z" />
    <glyph glyph-name="qixiangzhan" unicode="&#xe70a;" 
d="M960 598q0 62 -44 106t-106 44h-596q-62 0 -106 -44t-44 -106v-596q0 -62 44 -106t106 -44h596q62 0 106 44t44 106v596v0zM885 28q0 -42 -30 -72t-72 -30h-543q-42 0 -72 30t-30 72v543q0 42 30 72t72 30h543q42 0 72 -30t30 -72v-543v0zM512 515q11 0 19 8t8 19v36
q0 11 -8 18.5t-19 7.5t-19 -7.5t-8 -18.5v-36q0 -11 8 -19t19 -8zM270 327h-36q-11 0 -18.5 -8t-7.5 -19t7.5 -19t18.5 -8h36q11 0 19 8t8 19t-8 19t-19 8zM703 454l25 25q8 8 8 19t-8 19t-19 8t-19 -8l-25 -25q-8 -8 -8 -19.5t7.5 -19t19 -7.5t19.5 8zM326 146l-25 -25
q-8 -8 -8 -19t7.5 -19t19 -8t19.5 8l25 25q8 8 8 19.5t-8 19t-19 7.5t-19 -8zM790 327h-36q-11 0 -19 -8t-8 -19t8 -19t19 -8h36q11 0 18.5 8t7.5 19t-7.5 19t-18.5 8zM706 150q-8 7 -19 7t-19 -7.5t-8 -18.5t8 -19l25 -26q8 -8 19 -8t19 8t8 19t-8 19zM512 470
q-70 0 -120 -50t-50 -120t50 -120t120 -50t120 50t50 120t-50 120t-120 50zM512 184q-48 0 -82 34t-34 82t34 82t82 34t82 -34t34 -82t-34 -82t-82 -34zM512 85q-11 0 -19 -8t-8 -19v-36q0 -11 8 -18.5t19 -7.5t19 7.5t8 18.5v36q0 11 -8 19t-19 8zM323 450q8 -7 19 -7
t19 7.5t8 18.5t-8 19l-26 26q-7 8 -18.5 8t-19 -8t-7.5 -19t7 -19z" />
    <glyph glyph-name="renqunfenbu31" unicode="&#xe684;" 
d="M479 238q13 0 22 9t9 22t-9 22t-22 9t-22 -9t-9 -22t9 -22t22 -9zM224 558q13 0 22 9t9 22t-9 22t-22 9t-22 -9t-9 -22t9 -22t22 -9zM290 238q13 0 22 9t9 22t-9 22t-22 9t-22.5 -9t-9.5 -22t9.5 -22t22.5 -9zM734 -18q13 0 22 9.5t9 22.5t-9 22t-22 9t-22 -9t-9 -22
t9 -22.5t22 -9.5zM224 171q-13 0 -22 -9.5t-9 -22t9 -22t22 -9.5t22 9.5t9 22t-9 22t-22 9.5zM413 107q-13 0 -22 -9t-9 -22t9 -22t22 -9t22 9t9 22t-9 22t-22 9zM320 396q0 13 -9 22t-22 9t-22.5 -9t-9.5 -22t9.5 -22.5t22.5 -9.5t22 9.5t9 22.5zM415.5 426q-12.5 0 -22 -9
t-9.5 -22t9.5 -22.5t22 -9.5t22 9.5t9.5 22.5t-9.5 22t-22 9zM350.5 107q12.5 0 22 9.5t9.5 22t-9.5 22t-22 9.5t-22 -9.5t-9.5 -22t9.5 -22t22 -9.5zM479 174q13 0 22 9t9 22t-9 22.5t-22 9.5t-22 -9.5t-9 -22.5t9 -22t22 -9zM799 620q-13 0 -22.5 -9t-9.5 -22t9.5 -22
t22.5 -9t22 9t9 22t-9 22t-22 9zM608 171q-13 0 -22.5 -9.5t-9.5 -22t9.5 -22t22.5 -9.5t22 9.5t9 22t-9 22t-22 9.5zM481 45q-13 0 -22 -9t-9 -22t9 -22.5t22 -9.5t22 9.5t9 22.5t-9 22t-22 9zM351.5 555q-12.5 0 -22 -9t-9.5 -22t9.5 -22t22 -9t22 9t9.5 22t-9.5 22t-22 9
zM672 299q-13 0 -22 -9t-9 -22t9 -22t22 -9t22 9t9 22t-9 22t-22 9zM350.5 362q-12.5 0 -22 -9t-9.5 -22t9.5 -22t22 -9t22 9t9.5 22t-9.5 22t-22 9zM415 300q-13 0 -22 -9t-9 -22t9 -22t22 -9t22 9t9 22t-9 22t-22 9zM734 362q-13 0 -22 -9t-9 -22t9 -22t22 -9t22 9t9 22
t-9 22t-22 9zM606 495q13 0 22 9t9 22t-9 22.5t-22 9.5t-22.5 -9.5t-9.5 -22.5t9.5 -22t22.5 -9zM606 364q13 0 22 9.5t9 22.5t-9 22t-22 9t-22.5 -9t-9.5 -22t9.5 -22.5t22.5 -9.5zM480 428q13 0 22 9t9 22t-9 22t-22 9t-22 -9t-9 -22t9 -22t22 -9zM480 300q13 0 22 9t9 22
t-9 22t-22 9t-22 -9t-9 -22t9 -22t22 -9zM384 747h-127v-63h127v63zM768 747h-130v-63h130v63zM574 747h-126v-63h126v63zM896 43h63v130h-63v-130zM896 -84h-63v-63h126v127h-63v-64zM640 -147h129v63h-129v-63zM449 -147h127v63h-127v-63zM896 237h63v127h-63v-127z
M128 556h-63v-129h63v129zM832 747v-63h64v-65h63v128h-127zM896 428h63v128h-63v-128zM128 172h-63v-128h63v128zM128 363h-63v-127h63v127zM65 619h63v65h65v63h-128v-128zM255 -147h130v63h-130v-63zM128 -19h-63v-128h126v63h-63v65z" />
    <glyph glyph-name="reorder" unicode="&#xe6ff;" horiz-adv-x="1515" 
d="M1160 81h-805q-15 0 -25.5 -11t-10.5 -26v-73q0 -15 10.5 -26t25.5 -11h805q15 0 25.5 11t10.5 26v73q0 15 -10.5 26t-25.5 11zM1185.5 655q-10.5 11 -25.5 11h-805q-15 0 -25.5 -11t-10.5 -26v-73q0 -15 10.5 -26t25.5 -11h805q15 0 25.5 11t10.5 26v73q0 15 -10.5 26z
M1160 373h-805q-15 0 -25.5 -11t-10.5 -25v-74q0 -14 10.5 -25t25.5 -11h805q15 0 25.5 11t10.5 25v74q0 14 -10.5 25t-25.5 11z" />
    <glyph glyph-name="top" unicode="&#xe61a;" 
d="M513 470l397 -399q9 -9 21.5 -9t21.5 9t9 21.5t-9 21.5l-417 418q-9 10 -23 9q-14 1 -23 -9l-417 -419q-9 -8 -9 -20.5t9 -21.5t21.5 -9t20.5 9z" />
    <glyph glyph-name="tel" unicode="&#xe655;" 
d="M423 553q-3 38 -22.5 73t-41 56.5t-49 40.5t-39.5 25t-19 9q-10 4 -20 2q-49 -7 -88 -23t-59 -31t-34.5 -33.5t-17.5 -26t-4 -12.5q-2 -8 1 -16q43 -124 103.5 -230t118.5 -177t132.5 -131t129 -93t124.5 -61.5t102.5 -38t79.5 -21.5v0q22 -6 26.5 -7.5t10.5 -1.5
q7 0 14 3q5 2 13 6.5t27.5 20.5t36 36t33 55t23.5 77q2 10 -3 19q-3 5 -8 12.5t-23 26t-39.5 34.5t-58 33.5t-78.5 26.5q-17 4 -30 -6q-37 -30 -78.5 -54.5t-62.5 -27.5q-66 30 -125 75t-95 86.5t-56.5 74t-22.5 45.5q-2 14 25.5 53t65.5 77q10 10 8 24v0z" />
    <glyph glyph-name="xingxing" unicode="&#xe623;" 
d="M1017 500l-349 49l-157 307l-156 -307l-349 -49l253 -239l-60 -337l312 160l313 -160l-60 337z" />
    <glyph glyph-name="jiantou2" unicode="&#xe6ba;" 
d="M512 -128q-104 0 -199 40.5t-163.5 109t-109 163.5t-40.5 199t40.5 199t109 163.5t163.5 109t199 40.5t199 -40.5t163.5 -109t109 -163.5t40.5 -199t-40.5 -199t-109 -163.5t-163.5 -109t-199 -40.5v0zM512 828q-90 0 -172.5 -35.5t-142 -95t-94.5 -141.5t-35 -172
t35 -172t94.5 -141.5t142 -95t172.5 -35.5t172.5 35.5t142 95t94.5 141.5t35 172t-35 172t-94.5 141.5t-142 95t-172.5 35.5v0zM419 102q-11 0 -18 7.5t-7 18t7 18.5l237 238l-237 238q-7 8 -7 18.5t7.5 18t18 7.5t17.5 -7l273 -275l-273 -275q-7 -7 -18 -7v0zM419 102z" />
    <glyph glyph-name="taiyang" unicode="&#xe689;" 
d="M269 590q7 -8 18 -8t19 8t8 19t-8 18l-56 57q-8 7 -19 7t-18.5 -7.5t-7.5 -18.5t7 -19zM767 602l55 55q8 8 8 19t-7.5 18.5t-18.5 7.5t-19 -8l-55 -55q-8 -8 -8 -19t7.5 -18.5t18.5 -7.5t19 8zM512 675q11 0 18.5 8t7.5 19v79q0 11 -7.5 19t-18.5 8t-18.5 -8t-7.5 -19
v-79q0 -11 7.5 -19t18.5 -8zM194 410h-79q-11 0 -19 -7.5t-8 -18.5t8 -18.5t19 -7.5h79q11 0 19 7.5t8 18.5t-8 18.5t-19 7.5zM512 622q-99 0 -168.5 -69.5t-69.5 -168.5t69.5 -168.5t168.5 -69.5t168.5 69.5t69.5 168.5t-69.5 168.5t-168.5 69.5zM909 410h-79
q-11 0 -19 -7.5t-8 -18.5t8 -18.5t19 -7.5h79q11 0 19 7.5t8 18.5t-8 18.5t-19 7.5zM755 178q-7 8 -18 8t-19 -8t-8 -19t8 -18l56 -57q8 -7 19 -7t18.5 7.5t7.5 18.5t-7 19zM285 194l-56 -56q-8 -8 -8 -18.5t8 -18.5t18.5 -8t18.5 8l56 56q7 7 7 18t-7.5 18.5t-18.5 7.5
t-18 -7zM512 93q-11 0 -18.5 -8t-7.5 -19v-79q0 -11 7.5 -19t18.5 -8t18.5 8t7.5 19v79q0 11 -7.5 19t-18.5 8z" />
    <glyph glyph-name="xiangshang" unicode="&#xe68f;" 
d="M886.5 187q-6.5 -6 -15 -6t-15.5 6l-2 2v0l-342 342l-342 -342h-1l-2 -2q-6 -6 -15 -6t-15.5 6t-6.5 15t7 15q1 2 2 3v0l357 357v0v0v0v0q7 7 16 7t15 -7v0l357 -357v0q2 -1 3 -3q6 -6 6 -15t-6.5 -15z" />
    <glyph glyph-name="xiajiang" unicode="&#xe67a;" 
d="M862 269q0 -13 -7 -27t-14 -23l-7 -8l-238 -288q-5 -6 -13 -14.5t-28.5 -22.5t-35.5 -14t-34 13t-31 25l-12 13l-252 288q-28 32 -28 58q0 25 20 44.5t50 19.5v0h162v518q0 19 14 32t35 13h139q21 0 34.5 -13t13.5 -32v-518h162v0q30 0 50 -19.5t20 -44.5z" />
    <glyph glyph-name="eye" unicode="&#xe6d5;" 
d="M512 483.5q0 -38.5 -28 -66t-68 -27.5t-68 27.5t-28 66t28 66t68 27.5t68 -27.5t28 -66zM764 531q91 -57 150 -147q-59 -90 -150 -147q-115 -72 -252 -72t-252 72q-91 57 -150 147q59 90 150 147q3 2 11 7q-15 -41 -15 -86q0 -103 75 -176.5t181 -73.5t181 73.5t75 176.5
q0 45 -15 86q6 -4 11 -7zM512 696q-165 0 -302 -85.5t-210 -226.5q73 -141 210 -226.5t302 -85.5t302 85.5t210 226.5q-73 141 -210 226.5t-302 85.5v0z" />
    <glyph glyph-name="zhanyongkongjian" unicode="&#xe6b1;" 
d="M565 853v-431h430q0 80 -37 159t-96.5 138.5t-138.5 96.5t-158 37zM479 853q-86 0 -166.5 -40t-138 -105t-92 -151t-34.5 -176q0 -96 38 -184t101.5 -152t151.5 -101.5t184 -37.5q90 0 176 34.5t151 92t105 137.5t40 166h-517v517h1z" />
    <glyph glyph-name="dizhi" unicode="&#xe633;" 
d="M512 896q-83 0 -154.5 -44t-112.5 -115t-41 -148q0 -72 32 -172t77 -192t90.5 -173.5t76.5 -130.5l32 -49q12 19 33 52.5t74 128t93.5 180t74 186.5t33.5 170v0q0 99 -42 169.5t-110.5 104t-155.5 33.5zM512 486q-53 0 -90.5 37.5t-37.5 90.5t37.5 90.5t90.5 37.5
t90.5 -37.5t37.5 -90.5t-37.5 -90.5t-90.5 -37.5z" />
    <glyph glyph-name="a-dd-jg-report" unicode="&#xe69a;" 
d="M830 766h-95v64h-86q-21 29 -57.5 46.5t-79.5 17.5t-79.5 -17.5t-57.5 -46.5h-86v-64h-95q-53 0 -90.5 -37t-37.5 -90v-637q0 -53 37.5 -90.5t90.5 -37.5h636q53 0 90.5 37.5t37.5 90.5v637q0 53 -37.5 90t-90.5 37zM353 766h71q0 27 25.5 45.5t62.5 18.5t62.5 -18.5
t25.5 -45.5h71v-127h-318v127zM735 66h-446q-13 0 -22.5 9t-9.5 22.5t9.5 22.5t22.5 9h446q13 0 22.5 -9t9.5 -22.5t-9.5 -22.5t-22.5 -9zM735 225h-446q-13 0 -22.5 9t-9.5 22.5t9.5 22.5t22.5 9h446q13 0 22.5 -9t9.5 -22.5t-9.5 -22.5t-22.5 -9zM735 384h-446
q-13 0 -22.5 9.5t-9.5 22.5t9.5 22.5t22.5 9.5h446q13 0 22.5 -9.5t9.5 -22.5t-9.5 -22.5t-22.5 -9.5z" />
    <glyph glyph-name="tupian" unicode="&#xe68c;" 
d="M0 750v-732h1024v732h-1024zM951 140v0l-146 244l-166 -138l-127 211l-439 -366v585h878v-536v0v0zM256 603q-45 0 -77.5 -32t-32.5 -77.5t32 -77.5t77.5 -32t78 32t32.5 77.5t-32.5 77.5t-77.5 32z" />
    <glyph glyph-name="zhuzhuangtu" unicode="&#xe61f;" 
d="M0 896h93v-1024h-93v1024zM93 -35h931v-93h-931v93zM465 803h187v-745h-187v745zM745 431h186v-373h-186v373zM186 617h186v-559h-186v559z" />
    <glyph glyph-name="dikuai" unicode="&#xe647;" 
d="M448 383v-7v-314q0 -37 -35 -56q-11 -6 -25 -6h-317h-7v383h384zM384 64v255h-255v-255h255zM64 450v383h5h315q23 0 40.5 -14t22.5 -36q1 -3 1 -6v-323v-4h-384zM129 768v-255h255v255h-255zM897 833v-383h-384v6v314q0 31 27 51q16 12 35 12h319h3zM577 513h255v255
h-255v-255zM513 382h384v-190h-64v126h-256v-256h127v-63h-6h-123q-32 0 -51 27q-11 15 -11 33v316v7zM959 -2q-40 -41 -62 -61l-1 1l-1 1l-1 1l-1 1l-1 1l-1 1l-1 1l-1 1l-1 1l-1 1l-1 1l-1 1l-1 1l-1 1l-1 1l-1 1v1l-1 1l-1 1l-1 1l-1 1l-1 1l-1 1l-1 1l-1 1l-1 1l-1 1
l-1 1l-1 1l-1 1l-1 1l-1 1l-1 1l-1 1l-1 1l-1 1l-1 1l-1 1l-1 1l-1 1l-1 1l-1 1l-1 1l-1 1l-2 1l-1 1l-1 1l-1 1l-1 1l-1 1l-1 1l-1 1l-1 1l-1 1l-1 1l-1 1l-1 1l-1 1l-1 1l-1 1l-1 1l-1 1l-1 1l-1 1l-1 1l-1 1l-1 1l-1 1l-1 1l-1 1l-1 1l-1 1l-1 1l-1 1l-1 1l-1 1l-1 1
l-1 1l-1 1l-1 1l-1 1l-1 1l-1 1l-1 1l-1 1l-1 1l-1 1l-1 1l-1 1l-1 1l-1 1l-1 1l-1 1l-1 1l-1 1l-1 1l-1 1l-1 1l-1 1l-1 1l-1 1l-1 1l-1 1l-1 1l-1 1l-1 1l-1 1l-1 1l-1 1l-1 1l-1 1l-1 1l-1 1l-1 1l-1 1l-1 1l-1 1l-1 1l-1 1l-1 1l-1 1l-1 1l-1 1l-1 1l-1 1l-1 1l-1 1
l-1 1l-1 1l-1 1l-1 1l-1 1l-1 1l-1 1l-1 1l-1 1l-1 1l-1 1l-1 1l-1 1l-1 1l-1 1l-1 1l-1 1l-1 1l-1 1l-1 1l-1 1l-1 1l-1 1l-1 1l-1 1l-1 1l-1 1l-1 1l-1 1l-1 1l-1 1l-1 1l-1 1l-1 1l-1 1l-1 1l-1 1l-1 1l-1 1l-1 1l-1 1l-1 1l-1 1l-1 1l-1 1l-1 1l-1 1l-1 1l-1 1l-1 1
l-1 1l-1 1l-1 1l-1 1l-1 1l-1 1l-1 1l-1 1l-1 1l-1 1l-1 1l-1 1l-1 2l1 1l1 1l1 1l1 1l1 1l1 1l1 1l1 1l1 1l1 1l1 1l1 1l1 1l1 1l1 1l1 1l1 1l1 1l1 1l1 1l1 1l1 1l1 1l1 1l1 1l1 1l1 1l1 1l1 1l1 1l1 1l1 1l1 1l1 1l1 1l1 1l1 1l1 1l1 1l1 1l1 1l1 1l1 1l1 1l1 1l1 1l1 1
l1 1l1 1l1 1l1 1l1 1l1 1l1 1l1 1l1 1l1 1l1 1l1 1l1 1l1 1q107 -103 191 -191z" />
    <glyph glyph-name="weidu" unicode="&#xe68e;" 
d="M523 783q-110 0 -203.5 -54t-147.5 -147t-54 -203t54 -203t147.5 -147.5t203.5 -54.5t203 54.5t147 147.5t54 203t-54 203t-147 147t-203 54zM523 -4q-104 0 -192.5 51.5t-139.5 139.5t-51 192t51 192t139.5 139.5t192.5 51.5t192 -51.5t139 -139.5t51 -192t-51 -192
t-139 -139.5t-192 -51.5zM522.5 783q-75.5 0 -128.5 -22t-53 -53t53 -53t128.5 -22t128.5 22t53 53t-53 53t-128.5 22zM522.5 654q-64.5 0 -110 19t-45.5 45.5t45.5 45.5t110 19t110 -19t45.5 -45.5t-45.5 -45.5t-110 -19zM523.5 440q-167.5 0 -286 -22t-118.5 -53
t118.5 -53t286 -22t285.5 22t118 53t-118 53t-285.5 22zM523 311q-143 0 -244 19t-101 45.5t101 45.5t244 19t244.5 -19t101.5 -45.5t-101.5 -45.5t-244.5 -19zM522.5 125q-75.5 0 -128.5 -22t-53 -53.5t53 -53.5t128.5 -22t128.5 22t53 53.5t-53 53.5t-128.5 22zM522.5 -25
q-64.5 0 -110 19t-45.5 45.5t45.5 45t110 18.5t110 -18.5t45.5 -45t-45.5 -45.5t-110 -19z" />
    <glyph glyph-name="dianfeijisuan" unicode="&#xe652;" 
d="M882 251l-76 -77l76 -76v0q18 -18 18 -42.5t-17.5 -41.5t-42 -17t-41.5 17v0l-77 77l-76 -77v0q-18 -17 -42 -17t-41.5 17t-17.5 41.5t17 42.5v0l77 76l-77 77v0q-17 17 -17 41.5t17.5 41.5t41.5 17t42 -17v0l76 -76l77 76v0q17 17 41.5 17t42 -17t17.5 -41.5t-18 -41.5
v0zM841 588h-237q-24 0 -41.5 17.5t-17.5 42t17.5 41.5t41.5 17h237q24 0 41.5 -17t17.5 -41.5t-17.5 -42t-41.5 -17.5zM368 -3h-237q-24 0 -41.5 17t-17.5 41.5t17.5 42t41.5 17.5h237q24 0 41.5 -17.5t17.5 -42t-17.5 -41.5t-41.5 -17zM368 233h-237q-24 0 -41.5 17.5
t-17.5 42t17.5 41.5t41.5 17h237q24 0 41.5 -17t17.5 -41.5t-17.5 -42t-41.5 -17.5zM368 588h-60v-59q0 -25 -17 -42t-41.5 -17t-42 17t-17.5 42v59h-59q-24 0 -41.5 17.5t-17.5 42t17.5 41.5t41.5 17h59v59q0 25 17.5 42t42 17t41.5 -17t17 -42v-59h60q24 0 41.5 -17
t17.5 -41.5t-17.5 -42t-41.5 -17.5z" />
    <glyph glyph-name="icon1460361798771" unicode="&#xe609;" 
d="M874 86h-724l362 568z" />
    <glyph glyph-name="yueliang" unicode="&#xe6a7;" 
d="M400 846q0 21 -15 35.5t-35 14.5q-24 0 -65.5 -23.5t-90.5 -69.5t-92.5 -105t-72.5 -139t-29 -163q0 -106 41.5 -203t112 -167.5t167.5 -112t203 -41.5q83 0 163 29t139 73t105 93t69.5 90.5t23.5 64.5q0 20 -14.5 35t-35.5 15l-41.5 -6t-89 -7t-108 5.5t-123 34.5
t-110.5 76t-76 110.5t-34 122.5t-5 107.5t7 89z" />
    <glyph glyph-name="33" unicode="&#xe611;" horiz-adv-x="1025" 
d="M533 214v0v0zM40 341l315 -314q20 -21 48.5 -21t49 20.5t20.5 49t-20 49.5l-197 196h666q29 0 49 20t20 49t-20 49t-49 20h-666l197 196q20 21 20 49.5t-20.5 49t-49 20.5t-48.5 -21l-315 -314q-20 -20 -20 -49t20 -49z" />
    <glyph glyph-name="2" unicode="&#xe64d;" 
d="M516 896q-99 0 -181.5 -38t-133.5 -100.5t-73 -145.5t-8 -171q11 -63 52.5 -142.5t93 -147.5t107 -131.5t92.5 -100t51 -47.5q14 12 51.5 48t94 99t108.5 131t93 147.5t49 143.5q11 89 -11.5 171.5t-73 145t-131.5 100.5t-180 38zM516 328q-71 0 -122 50.5t-51 122
t51 122t122 50.5t122 -50.5t51 -122t-51 -122t-122 -50.5z" />
    <glyph glyph-name="xiangshang1" unicode="&#xe614;" 
d="M960 225l-448 447l-447 -447l80 -81l367 367l367 -367zM960 225z" />
    <glyph glyph-name="icon-copy-copy" unicode="&#xe683;" 
d="M576 346q16 16 16 39t-16 39l-383 394q-16 16 -38.5 16t-38 -16t-15.5 -39t16 -39l345 -355l-345 -354q-16 -16 -16 -39t15.5 -39t38 -16t38.5 16zM449 740l345 -355l-345 -354q-16 -16 -16 -39t16 -39t38 -16t38 16l383 393q16 16 16 39t-16 39l-383 394q-16 16 -38 16
t-38 -16t-16 -39t16 -39z" />
    <glyph glyph-name="jiantou-copy" unicode="&#xe612;" 
d="M511 830q-91 0 -174 -35.5t-143 -95.5t-95.5 -143t-35.5 -174t35.5 -174t95.5 -143t143 -95.5t174 -35.5t174 35.5t143 95.5t95.5 143t35.5 174t-35.5 174t-95.5 143t-143 95.5t-174 35.5zM510.5 -10q-106.5 0 -196.5 52.5t-142.5 142.5t-52.5 197t52.5 197t142.5 142.5
t196.5 52.5t197 -52.5t143 -142.5t52.5 -197t-52.5 -197t-143 -142.5t-197 -52.5zM638 621q-8 8 -20 8t-20 -8l-214 -214q-10 -10 -7 -25q-3 -15 7 -25l214 -214q8 -8 20 -8t20 8t8 19.5t-8 19.5l-200 200l200 199q8 9 8 20.5t-8 19.5z" />
    <glyph glyph-name="jiantou-copy1" unicode="&#xe619;" 
d="M513 -62q91 0 174 35.5t143 95.5t95.5 143t35.5 174t-35.5 174t-95.5 143t-143 95.5t-174 35.5t-174 -35.5t-143 -95.5t-95.5 -143t-35.5 -174t35.5 -174t95.5 -143t143 -95.5t174 -35.5zM513.5 778q106.5 0 196.5 -52.5t142.5 -142.5t52.5 -197t-52.5 -197
t-142.5 -142.5t-196.5 -52.5t-197 52.5t-143 142.5t-52.5 197t52.5 197t143 142.5t197 52.5zM386 147q8 -8 20 -8t20 8l214 214q10 10 7 25q3 15 -7 25l-214 214q-8 8 -20 8t-20 -8t-8 -19.5t8 -19.5l200 -200l-200 -199q-8 -9 -8 -20.5t8 -19.5z" />
    <glyph glyph-name="jiantou-copy-copy-copy-copy-copy" unicode="&#xe625;" 
d="M570 53q-16 -29 -39.5 -29t-40.5 29l-316 548q-17 29 -5 49t45 20h633q33 0 44.5 -20t-4.5 -49z" />
    <glyph glyph-name="anonymous-iconfont" unicode="&#xe6e0;" 
d="M333 243h-16v-31h16q9 0 12.5 5t3.5 11q0 7 -4 11t-12 4zM734 460q-2 59 -39 107l66 65v0v0h1v0q5 6 3.5 16t-9.5 18.5t-17.5 10t-16.5 -4.5v1l-67 -66q-50 38 -115 44v91v0v0v1v0q-1 9 -9 14.5t-19.5 5.5t-19.5 -5.5t-8 -14.5h-1v-94q-56 -9 -100 -42l-61 65v0v0v1v0
q-6 6 -16 4.5t-18.5 -9t-10.5 -17.5t4 -16v0l62 -67q-34 -44 -38 -97h-84v0v0h-1v0q-8 0 -14 -8.5t-6 -19.5t6 -19.5t14 -8.5v0h88q4 -19 13 -38q-55 -11 -91.5 -54.5t-36.5 -101.5q0 -65 46 -111.5t112 -46.5v0h303q83 3 142 63.5t59 144.5q0 62 -33.5 113t-87.5 76z
M519 612q68 0 118.5 -40t58.5 -99q-25 6 -50 6q-66 0 -119 -37.5t-75 -96.5q-40 32 -90 35q-22 35 -22 74q0 66 52.5 112t126.5 46zM371 211.5q-3 -8.5 -8.5 -13t-11 -6t-16.5 -1.5h-17v-44h-25v118h41q14 0 21.5 -3.5t13 -12t5.5 -20.5q0 -9 -3 -17.5zM502 147h-25v96
l-26 -96h-17l-26 96v-96h-20v118h38l18 -71l19 71h39v-118zM595 147h-78v23q4 3 13 10q21 17 31 28.5t10 20.5q0 7 -4 11.5t-11 4.5q-15 0 -17 -23l-22 6q7 39 40 39q19 0 29 -11t10 -26q0 -16 -10.5 -28.5t-38.5 -31.5h50zM636 147h-24v27h24v-27zM721 157q-10 -12 -29 -12
q-34 0 -42 34l23 4q4 -16 18 -16q7 0 11.5 5.5t4.5 12.5q0 8 -4.5 13t-11.5 5q-10 0 -15 -9l-20 4l4 67h66l-3 -24h-45l-2 -27q8 11 22 11t24 -10.5t10 -27.5q0 -18 -11 -30v0z" />
    <glyph glyph-name="kaishi1" unicode="&#xe7c3;" 
d="M512.5 855q-95.5 0 -182 -37t-149 -100t-100 -149.5t-37.5 -182t37.5 -182t100 -149.5t149 -100t182 -37t182.5 37t149.5 100t99.5 149.5t37 182t-37 182t-99.5 149.5t-149.5 100t-182.5 37zM512.5 -24q-111.5 0 -206 55t-149.5 149.5t-55 206t55 206t149.5 149.5t206 55
t206 -55t149.5 -149.5t55 -206t-55 -206t-149.5 -149.5t-206 -55zM395 210l293 182l-293 170v-352z" />
    <glyph glyph-name="zixunzhuanhuan" unicode="&#xe687;" 
d="M1019 0q-10 -42 -44.5 -69t-78.5 -27q-15 0 -32 5v-5h-800q-26 0 -45 19t-19 45v832q0 26 19 45t45 19h704q26 0 45 -19t19 -45v-256h144q20 0 34 -14t14 -34v-496h-5zM768 496v240q0 26 -19 45t-45 19h-576q-27 0 -45.5 -18.5t-18.5 -45.5v-704q0 -26 19 -45t45 -19h658
v0h-18v64v464zM960 110v114v240q0 7 -4.5 11.5t-11.5 4.5h-96q-7 0 -11.5 -4.5t-4.5 -11.5v-240v-114v-78q0 -26 19 -45t45 -19t45 19t19 45v78zM624 256h-416q-7 0 -11.5 4.5t-4.5 11.5v32q0 7 4.5 11.5t11.5 4.5h416q7 0 11.5 -4.5t4.5 -11.5v-32q0 -7 -4.5 -11.5
t-11.5 -4.5zM624 576h-224q-7 0 -11.5 4.5t-4.5 11.5v32q0 7 4.5 11.5t11.5 4.5h224q7 0 11.5 -4.5t4.5 -11.5v-32q0 -7 -4.5 -11.5t-11.5 -4.5zM272 576h-32q-20 0 -34 14t-14 34v32q0 20 14 34t34 14h32q20 0 34 -14t14 -34v-32q0 -20 -14 -34t-34 -14zM208 480h352
q7 0 11.5 -4.5t4.5 -11.5v-32q0 -7 -4.5 -11.5t-11.5 -4.5h-352q-7 0 -11.5 4.5t-4.5 11.5v32q0 7 4.5 11.5t11.5 4.5zM208 160h352q7 0 11.5 -4.5t4.5 -11.5v-32q0 -7 -4.5 -11.5t-11.5 -4.5h-352q-7 0 -11.5 4.5t-4.5 11.5v32q0 7 4.5 11.5t11.5 4.5z" />
    <glyph glyph-name="icon-copy" unicode="&#xe68d;" 
d="M439 427q-18 -18 -18 -44t18 -45l436 -447q18 -19 43.5 -19t43.5 18.5t18 44.5t-18 44l-393 404l393 403q18 18 18 44t-18 44.5t-43.5 18.5t-43.5 -18zM584 -21l-393 404l393 403q18 18 18 44t-18 44.5t-43.5 18.5t-43.5 -18l-436 -448q-18 -18 -18 -44t18 -45l436 -447
q18 -19 43.5 -19t43.5 18.5t18 44.5t-18 44v0z" />
    <glyph glyph-name="m-jinrong" unicode="&#xe6de;" 
d="M1018 750q6 12 6 24q0 46 -85 78.5t-204.5 32.5t-204.5 -32.5t-85 -78.5q0 -12 7 -24q-7 -3 -7 -10v-184q-71 17 -156 17q-119 0 -204 -32.5t-85 -78.5q0 -12 6 -23q-6 -3 -6 -10v-446q0 -5 5 -9q19 -39 99 -65t185.5 -26t185.5 26t99 65q5 4 5 9v74q71 -18 156 -18
q105 0 185 26t99 65q5 3 5 9v601q0 7 -6 10zM289.5 529q101.5 0 173 -19.5t71.5 -47.5t-71.5 -47.5t-173 -19.5t-173 19.5t-71.5 47.5t71.5 47.5t173 19.5zM45 403q39 -24 103.5 -38t140.5 -14t141 14t104 38v-97q0 -28 -71.5 -47.5t-173 -19.5t-173 19.5t-71.5 47.5v97z
M45 247q39 -24 103.5 -38t140.5 -14t141 14t104 38v-97q0 -27 -71.5 -47t-173 -20t-173 20t-71.5 47v97zM289.5 -72q-101.5 0 -173 19.5t-71.5 46.5v97q39 -24 103.5 -38t140.5 -14t141 14t104 38v-97q0 -27 -71.5 -46.5t-173 -19.5zM979 150q0 -27 -71.5 -47t-172.5 -20
q-88 0 -156 16v114q72 -18 156 -18q76 0 140.5 14t103.5 38v-97zM979 306q0 -28 -71.5 -47.5t-172.5 -19.5q-88 0 -156 16v113q72 -17 156 -17q76 0 140.5 14t103.5 38v-97zM979 462q0 -28 -71.5 -47.5t-172.5 -19.5q-88 0 -156 15v19q0 7 -7 10q7 11 7 23q0 23 -23.5 44
t-65.5 36v17q39 -24 104 -38.5t141 -14.5t140.5 14.5t103.5 38.5v-97zM979 618q0 -28 -71.5 -47.5t-173 -19.5t-173 19.5t-71.5 47.5v96q39 -24 104 -38t141 -14t140.5 14t103.5 38v-96zM734.5 707q-101.5 0 -173 19.5t-71.5 47t71.5 47t173 19.5t173 -19.5t71.5 -47
t-71.5 -47t-173 -19.5z" />
    <glyph glyph-name="shangsheng" unicode="&#xe603;" 
d="M552 788h-89l-356 -444h267v-356h267v356h267z" />
    <glyph glyph-name="fengxiang" unicode="&#xe65b;" 
d="M550 376q3 46 -28 79q-49 52 -154 52q-85 0 -148 -37q-10 -5 -20 -13l-60 -58q-34 -44 -49.5 -92.5t-8.5 -89.5q9 -52 53 -80q35 -22 67 -22q24 0 48.5 14t39 28t41.5 42q57 62 93 83q38 21 81 42q28 14 36 22.5t9 29.5v0zM494 382l-14 -7q-44 -22 -84 -45
q-43 -25 -106 -93q-22 -23 -33 -33.5t-27 -21t-28 -10.5q-16 0 -37 13q-15 10 -22 25t-7 35q1 46 34 98t78 79q50 28 120 28q80 0 113 -34q13 -14 13 -34v0zM822 230q-82 19 -118 40q-37 21 -77 48q-31 21 -44 21q-9 0 -24 -8q-57 -29 -59 -97q-2 -62 40.5 -132t102.5 -104
q9 -5 19 -10l76 -22q25 -4 50 -4q46 0 85 11.5t69 42t31 75.5q1 22 -3 39.5t-10.5 30t-19.5 23t-23 16.5t-29.5 12.5t-31 9.5t-34.5 8v0zM917 93q-1 -33 -33 -53q-37 -22 -96 -22q-67 0 -117 29q-47 27 -81 84q-35 55 -34 101q1 34 26 48q4 -3 13 -9q42 -28 81 -50
q43 -25 133 -46q68 -16 87 -29q22 -15 21 -53v0zM585 510q0 -43 -4 -91q-2 -31 1.5 -42.5t21.5 -22.5q27 -18 57 -18q47 0 91.5 41t71.5 100.5t27 115.5q0 21 -5 44l-27 82q-26 53 -68.5 90t-91.5 37v0q-28 0 -54 -13q-23 -12 -37.5 -26t-20.5 -31t-8.5 -31.5t2 -37t8 -36
t11.5 -39.5q25 -80 25 -122v0zM614 649q-20 66 -19 89q2 27 36 45q33 17 71 -8q25 -16 46 -46q21 -31 33.5 -67.5t12.5 -68.5q0 -69 -47 -137q-20 -30 -43 -47t-43 -17q-12 0 -24 8q0 4 1 15q3 50 3 95q0 50 -27 139v0z" />
    <glyph glyph-name="zanting" unicode="&#xe644;" 
d="M512 896q-139 0 -257 -68.5t-186.5 -186.5t-68.5 -257t68.5 -257t186.5 -186.5t257 -68.5t257 68.5t186.5 186.5t68.5 257t-68.5 257t-186.5 186.5t-257 68.5zM807 89q-59 -60 -135 -91.5t-160 -31.5t-160 31.5t-135 91.5q-60 59 -91.5 135t-31.5 160t31.5 160t91.5 135
q59 60 135 91.5t160 31.5t160 -31.5t135 -91.5q60 -59 91.5 -135t31.5 -160t-31.5 -160t-91.5 -135zM342 646h113v-524h-113v524zM569 646h113v-524h-113v524z" />
    <glyph glyph-name="chaye" unicode="&#xe681;" 
d="M707 5q3 -13 5 -20q-2 9 -5 20v0zM983 620q-18 43 -34 73t-23 39l-7 8q2 -6 4.5 -16.5t0 -36.5t-18.5 -44q-11 -13 -45.5 -28.5t-69 -29.5t-70 -43.5t-50.5 -68.5q-18 -47 -24 -88q-51 271 -262 303q-67 11 -119.5 6t-80.5 -16.5t-69.5 -21t-87.5 -6.5q5 -2 13 -4.5
t31 -15t43.5 -29t43.5 -47.5t37 -68q128 -342 361 -362q121 -11 151 -119q-1 3 -2 9q-8 34 -13 54t-17.5 62t-25 71.5t-35 74t-47.5 78t-61.5 74.5t-78.5 73.5t-97.5 65.5t-118.5 58q2 0 6 -1q27 -3 46 -6t62 -14.5t76.5 -26.5t77.5 -44.5t76 -66t62 -93t46 -123.5
q-6 -74 34 -186q-1 6 -4 16t-8.5 36.5t-9 49.5t-2.5 46.5t8 34.5q11 19 33 29.5t63.5 22.5t62.5 20q28 11 59.5 39t59 70t36 90.5t-11.5 101.5v0zM804 440q-4 -3 -15 -12.5t-16.5 -15t-17 -15.5t-18 -16.5t-16.5 -16t-16 -16.5t-12.5 -15t-11 -15t-6.5 -12q-10 -25 -12 -52
q-4 49 -9 83q27 64 74 106q17 15 87.5 67.5t103.5 83.5q-6 -25 -44 -75t-71 -79v0zM804 440z" />
    <glyph glyph-name="bingtu" unicode="&#xe62a;" 
d="M555 428v404q110 0 203 -54.5t147 -147.5t54 -202h-404zM471.5 -60q-109.5 0 -203 54t-147.5 147t-54 203t54 203t147.5 147t202.5 54v-404h404q0 -110 -54 -203t-147 -147t-202.5 -54z" />
    <glyph glyph-name="question1" unicode="&#xe73a;" 
d="M512 768q-104 0 -192.5 -51.5t-140 -140t-51.5 -192.5t51.5 -192.5t140 -140t192.5 -51.5t192.5 51.5t140 140t51.5 192.5t-51.5 192.5t-140 140t-192.5 51.5zM521 160q-23 0 -39 16t-16 39t16 39.5t39 16.5t39.5 -16.5t16.5 -39.5t-16.5 -39t-39.5 -16zM595 397
q-23 -22 -27 -48q-5 -37 -44 -38q-17 -1 -29.5 10t-14.5 27q-4 53 33 83q27 22 27 38q0 18 -10 29.5t-24 11.5q-15 1 -25.5 -9.5t-14.5 -23.5v-1q0 -1 -0.5 -4t-3.5 -10t-7 -12.5t-12 -10t-19 -5.5q-17 0 -29.5 12.5t-12.5 29.5q0 56 40.5 91t88.5 35q45 0 85 -33t41 -83
q1 -27 -7.5 -46t-34.5 -43z" />
    <glyph glyph-name="tongjitu" unicode="&#xe67c;" 
d="M851 225l-321 180v359q0 15 -10.5 25.5t-25.5 10.5q-88 0 -166 -32t-137 -89l-1 -1v0q-59 -58 -92.5 -134t-33.5 -160t33.5 -160t92.5 -133v-1q60 -57 138 -89.5t166 -32.5q113 0 211 55l2 1q98 55 157 151v1q8 13 4 27t-17 22zM671 86l-2 -2q-81 -45 -175 -45
q-73 0 -138 27t-114 74q-49 48 -76.5 111t-27.5 133t27.5 133t76.5 111q90 87 215 99v-343q0 -23 21 -33l303 -169q-45 -60 -110 -96zM852 691q-100 97 -240 105v-346l309 -173q18 37 26 68q13 46 13 93q0 73 -28.5 138.5t-79.5 114.5z" />
    <glyph glyph-name="jiantou-copy-copy" unicode="&#xe604;" 
d="M617 414h-330v-60h330l-125 -120h89l156 150l-156 150h-89zM70 384q0 -90 35 -172t94 -141t141 -94t172 -35t172 35t141 94t94 141t35 172t-35 172t-94 141t-141 94t-172 35t-172 -35t-141 -94t-94 -141t-35 -172zM927 384q0 -113 -55.5 -208.5t-151 -151t-208.5 -55.5
t-208.5 55.5t-151 151t-55.5 208.5t55.5 208.5t151 151t208.5 55.5t208.5 -55.5t151 -151t55.5 -208.5z" />
    <glyph glyph-name="wenti" unicode="&#xe616;" 
d="M930 545q-35 83 -99 147t-147 99q-86 37 -180 37t-179 -37q-83 -35 -147 -99t-99 -147q-37 -85 -37 -179t37 -180q35 -83 99 -147t147 -99q85 -36 179 -36t180 36q83 35 147 99t99 147q36 86 36 180t-36 179zM504.5 -20q-104.5 0 -193.5 52t-140.5 140.5t-51.5 193
t51.5 193.5t140.5 140.5t193.5 51.5t193 -51.5t140.5 -140.5t52 -193.5t-52 -193t-140.5 -140.5t-193 -52zM503 219q-23 0 -40 -17t-17 -42t17 -42.5t41 -17.5t41 17.5t17 42.5t-17 42t-42 17zM642 561q-20 34 -53 52t-80 18q-73 0 -117 -44q-46 -44 -45 -110h88
q0 30 19.5 48.5t50.5 18.5q29 0 47.5 -15.5t18.5 -36.5q0 -18 -7.5 -29.5t-42.5 -44.5q-37 -33 -53.5 -71t-16.5 -84v-16h91q2 33 7 51.5t12 30t36 39.5q30 29 38 41q14 21 20.5 40.5t6.5 39.5q0 38 -20 72z" />
    <glyph glyph-name="riqi" unicode="&#xe60a;" 
d="M707.5 693q9.5 0 16 5t6.5 13v110q0 7 -6.5 12.5t-16 5.5t-16.5 -5.5t-7 -12.5v-110q0 -8 7 -13t16.5 -5zM315.5 693q9.5 0 16 5t6.5 13v69v41q0 7 -6.5 12.5t-16 5.5t-16.5 -5.5t-7 -12.5v-41v-69q0 -8 7 -13t16.5 -5zM454 139q9 -10 21.5 -10t21.5 10l227 260
q9 11 9 25.5t-9 25t-22 10.5t-22 -11l-204 -234l-106 120q-9 11 -21.5 11t-21.5 -10.5t-9 -25t9 -25.5zM833 780h-77v-61q0 -18 -14 -30t-34 -12t-34 12.5t-14 29.5v61h-297v-61q0 -17 -14.5 -29.5t-34 -12.5t-34 12.5t-14.5 29.5v61h-76q-39 0 -66.5 -24t-27.5 -58v-660
q0 -33 27.5 -57t66.5 -24h643q39 0 66 24t27 57v660q0 34 -27 58t-66 24zM865 51q0 -11 -9.5 -18.5t-22.5 -7.5h-643q-14 0 -23.5 7.5t-9.5 18.5v498h709z" />
    <glyph glyph-name="yonghuming" unicode="&#xe75d;" 
d="M504.5 880q-102.5 0 -196 -40t-161 -107.5t-107 -161t-39.5 -196t39.5 -195.5t107 -160.5t161 -107.5t196 -40t195.5 40t160.5 107.5t107.5 160.5t40 195.5t-40 196t-107.5 161t-160.5 107.5t-195.5 40zM800 48q-15 28 -46 49q-23 15 -70 34t-65 30q-29 17 -35 37
q-6 44 -6 54q9 6 18 20q15 25 19 51q11 2 17 10q9 13 11 34q2 17 -12 28q20 60 15 105q-4 38 -29 58q-16 13 -44 17q-7 9 -15 14q-21 11 -57 12q-62 -1 -98 -24q-21 -14 -32 -36q-13 -23 -14 -55q-2 -39 13 -91q-14 -10 -13 -26t7 -29q7 -15 21 -17q4 -25 18 -48
q10 -17 20 -23l0.5 -26t-1.5 -28q-7 -23 -44 -42q-14 -8 -56.5 -25t-63.5 -30q-28 -18 -43 -38q-4 -6 -8 -13q-68 62 -106 146.5t-38 179.5q0 90 35 171.5t94 140.5t141 94t171.5 35t171.5 -35t141 -94t94 -140.5t35 -171.5q0 -96 -39 -181t-107 -147z" />
    <glyph glyph-name="liebiao-copy" unicode="&#xe60b;" 
d="M375 589h547q30 0 49 18.5t19 49.5t-19 49.5t-49 18.5h-547q-30 0 -49 -18.5t-19 -49.5t19 -49.5t49 -18.5zM922 452h-547q-30 0 -49 -18.5t-19 -49.5t19 -49.5t49 -18.5h547q30 0 49 18.5t19 49.5t-19 49.5t-49 18.5zM922 179h-547q-30 0 -49 -18.5t-19 -49.5t19 -49.5
t49 -18.5h547q30 0 49 18.5t19 49.5t-19 49.5t-49 18.5zM102.5 725q-30.5 0 -49.5 -18.5t-19 -49.5t19 -49.5t49.5 -18.5t49.5 18.5t19 49.5t-19 49.5t-49.5 18.5zM102.5 452q-30.5 0 -49.5 -18.5t-19 -49.5t19 -49.5t49.5 -18.5t49.5 18.5t19 49.5t-19 49.5t-49.5 18.5z
M102.5 179q-30.5 0 -49.5 -18.5t-19 -49.5t19 -49.5t49.5 -18.5t49.5 18.5t19 49.5t-19 49.5t-49.5 18.5z" />
    <glyph glyph-name="jiantou-copy-copy-copy" unicode="&#xe60c;" 
d="M407 354h330v60h-330l125 120h-89l-156 -150l156 -150h89zM954 384q0 90 -35 172t-94 141t-141 94t-172 35t-172 -35t-141 -94t-94 -141t-35 -172t35 -172t94 -141t141 -94t172 -35t172 35t141 94t94 141t35 172zM97 384q0 113 55.5 208.5t151 151t208.5 55.5
t208.5 -55.5t151 -151t55.5 -208.5t-55.5 -208.5t-151 -151t-208.5 -55.5t-208.5 55.5t-151 151t-55.5 208.5z" />
    <glyph glyph-name="liebiao-copy1" unicode="&#xe617;" 
d="M477 483q0 -31 -22 -53t-53 -22h-267q-31 0 -53 22t-22 53v278q0 31 22 53t53 22h267q31 0 53 -22t22 -53v-278zM477 6q0 -31 -22 -53t-53 -22h-267q-31 0 -53 22t-22 53v278q0 31 22 53.5t53 22.5h267q31 0 53 -22.5t22 -53.5v-278zM965 483q0 -31 -22 -53t-53 -22h-267
q-31 0 -53 22t-22 53v278q0 31 22 53t53 22h267q31 0 53 -22t22 -53v-278zM965 6q0 -31 -22 -53t-53 -22h-267q-31 0 -53 22t-22 53v278q0 31 22 53.5t53 22.5h267q31 0 53 -22.5t22 -53.5v-278z" />
    <glyph glyph-name="chiping" unicode="&#xe635;" 
d="M872 340h-720q-28 0 -47 19t-19 46t19 46.5t47 19.5h720q28 0 47 -19.5t19 -46.5t-19.5 -46t-46.5 -19z" />
    <glyph glyph-name="zhongzhi" unicode="&#xe688;" horiz-adv-x="1478" 
d="M1115 895q68 5 133 -12t116 -42t82 -53q32 -29 32 -48t-24 -23t-61 -7.5t-80 -12.5q-43 -8 -82 -39q-27 -21 -49 -43q-27 -26 -47 -45q-23 -21 -48.5 -40t-53.5 -28q-17 -6 -36 -10q-21 -5 -44 -2.5t-49 15.5q-25 12 -47 43q-15 -20 -25 -46q-11 -26 -19 -57
q-8 -33 -14 -64q-5 -33 -9 -62q-3 -23 -5 -60q-1 -40 0 -72q1 -35 4 -66q3 -30 9 -42q8 -15 8 -25q0 -8 -8 -15t-30 -7q-26 0 -35 7t-9 15q-1 10 7 23q8 17 10 38q2 23 2 47q-1 25 -3 51q-1 27 -1 50q-26 51 -50.5 87t-52.5 67q-18 -38 -42 -58q-23 -19 -47 -26
q-24 -8 -46 -7q-21 1 -38 4q-28 5 -55 19t-52 30q-23 16 -52 37q-26 18 -54 34q-42 24 -86 25q-45 2 -81 -2t-60 -3q-23 1 -23 22t26.5 53t70.5 64q45 31 104.5 56t125.5 32q102 9 169 -11t105 -57t47 -86q10 -48 -3 -97q52 -46 102 -119q8 79 40 160q13 27 24 47
q11 18 28 42q-26 46 -27 99q-1 54 31 100q32 47 97.5 80t174.5 40v0zM634 451q-90 77 -190 100q-101 23 -207 -5h-1q1 -1 4 -1q48 5 96 4q49 -1 97 -15q49 -13 98 -40q48 -27 95 -72l8 29v0zM1226 758h5q-1 1 -3 1q-118 12 -213 -36t-168 -140l16 -27q44 60 90 99t93 61
q49 23 93 31q46 9 87 11v0zM384 -67q-13 12 8 27t61 32q41 16 91 33q54 17 98 30q21 6 33 -1q12 -8 23 -19t26 -22q15 -10 44 -10t44 10t27 21q11 11 22 18q12 7 33 2q47 -13 98 -30q50 -18 93 -35q41 -17 62 -32q21 -16 5 -24q-39 -21 -104 -34q-68 -14 -142 -21
q-77 -6 -158 -6q-83 0 -154 7q-73 8 -129 21q-57 14 -81 33v0z" />
    <glyph glyph-name="bottom" unicode="&#xe620;" 
d="M532 153l421 421q9 9 9 22t-9 22.5t-22 9.5t-23 -9l-400 -401l-394 394q-9 9 -21.5 9t-21.5 -9t-9 -21.5t9 -21.5l409 -409q0 -1 5 -4q1 0 1.5 -1t0.5 -2q10 -9 23 -9t22 9z" />
    <glyph glyph-name="yonghuming1" unicode="&#xe664;" 
d="M930 67q-13 18 -54 28.5t-83.5 15t-81.5 16.5t-50 33q-15 31 -23 50t-11.5 30.5t-0.5 18.5t7 10t14.5 8.5t17.5 11.5q21 16 35 67.5t23 61.5q16 19 23.5 64.5t1.5 68.5q-4 12 -9.5 19t-10 8t-8 5t-4.5 14q-3 33 -1 58.5t-3 49t-21 36.5q-6 6 -26.5 26t-34 31.5
t-37.5 22.5t-48 11q-39 1 -83 -25q-22 3 -40.5 0t-32 -9t-25 -17.5t-19.5 -22t-14 -27t-9.5 -28.5t-6 -30.5t-3.5 -28t-2.5 -26.5t-1.5 -21q-1 -10 -4.5 -14t-8 -5t-10 -8t-9.5 -19q-6 -23 1.5 -68.5t23.5 -64.5q9 -10 23 -61.5t35 -67.5q7 -6 17.5 -11.5t14.5 -8.5t7 -10
t-0.5 -18.5t-11.5 -30.5t-23 -50q-11 -21 -50 -33t-81.5 -16.5t-83.5 -15t-54 -28.5q-30 -40 -30 -131v0h448h448q0 10 -0.5 26t-8 51.5t-21.5 53.5z" />
    <glyph glyph-name="tuceng" unicode="&#xe7a4;" horiz-adv-x="1182" 
d="M1147 334v-1l-535 -219v0v0v0q-11 -4 -21.5 -4t-21.5 4v0v0v0l-535 219v1q-15 6 -24.5 19.5t-9.5 30.5q0 23 16 39t39 16q11 0 22 -4v0v0v0l514 -211l513 211h1v0v0q10 4 21 4q23 0 39 -16t16 -39q0 -17 -9.5 -30.5t-24.5 -19.5zM1147 571v0l-535 -219v0v0v0
q-11 -4 -21.5 -4t-21.5 4v0v0v0l-535 219v0q-15 6 -24.5 20t-9.5 31t9.5 30.5t24.5 19.5v0l535 220v0v0v0q11 4 21.5 4t21.5 -4v0v0v0l535 -220v0q15 -6 24.5 -19.5t9.5 -30.5t-9.5 -31t-24.5 -20zM55 201q11 0 22 -4v0v0v0l514 -210l513 210h1v0v0q10 4 21 4q23 0 39 -16
t16 -38q0 -17 -9.5 -31t-24.5 -20v0l-535 -219v0v0v0q-10 -5 -21.5 -5t-21.5 5v0v0v0l-535 219v0q-15 6 -24.5 20t-9.5 31q0 22 16 38t39 16z" />
    <glyph glyph-name="icon11-copy-copy-copy" unicode="&#xe640;" 
d="M129 552q0 84 46.5 134t125.5 50q76 0 118 -45.5t42 -126.5q0 -83 -46.5 -132.5t-124.5 -49.5q-74 0 -117.5 46.5t-43.5 123.5zM226 557q0 -95 69 -95q71 0 71 99q0 95 -68 95q-72 0 -72 -99zM783 727l-444 -682h-110l442 682h112zM552 206q0 84 47 134t125 50
q76 0 118 -44.5t42 -126.5q0 -84 -47 -134t-125 -50q-72 0 -116 47t-44 124zM648 211q0 -95 70 -95q71 0 71 98q0 46 -19 71t-50 25q-72 0 -72 -99z" />
    <glyph glyph-name="shidu" unicode="&#xe64f;" 
d="M513 778v0v0v0v0v-6v6v0v0v0v0q-14 -14 -35.5 -37t-73.5 -85t-91 -119.5t-69 -128.5t-27 -123q0 -122 86.5 -208.5t208.5 -86.5h1v0h1q122 0 208.5 86.5t86.5 208.5q3 52 -27 123t-69 128.5t-91 119.5t-73.5 85t-35.5 37zM764 285v0q0 -103 -73.5 -176.5t-176.5 -73.5h-1
v0v0v0v0h-1q-103 0 -176.5 73.5t-73.5 176.5v0q-8 126 182 357q39 47 69 78v-1v0v0v0v0v1q1 0 27.5 -29.5t64.5 -77.5t75.5 -103.5t62.5 -117t21 -107.5zM286 288q0 -95 67 -161.5t161 -66.5q77 0 138.5 51t81.5 126q-24 18 -70 25.5t-80 6.5l-35 -2q-134 0 -251 94
q-12 -36 -12 -73z" />
    <glyph glyph-name="shirenrenzheng2" unicode="&#xe675;" 
d="M515.5 222q-49.5 0 -91.5 27q-73 -107 -100 -246l148 -86v0v0q20 -11 42 -11t40 10v0l152 88q-27 139 -99 245q-42 -27 -91.5 -27zM728 738v0l-204 117l-8 5l-7 -5l-204 -117v0l-203 -117l-8 -5v-9v-234v-235v-9l8 -4l195 -113q4 17 7 32l-149 86q1 2 2 5h176q0 1 1 3.5
t2 3.5h-176q1 3 1 7q0 5 -2 9l239 138q-5 6 -9 12l-237 -137q-6 6 -14 9l165 285q5 -2 10 -2q11 0 19 8l42 -25l6 14l-41 24q1 3 1 6q0 13 -10 21l165 285q6 -5 14 -7v-245h3h4.5h4.5h3v245q8 2 14 7l165 -285q-10 -8 -10 -21q0 -3 1 -6l-41 -24l6 -14l42 25q8 -8 19 -8
q5 0 10 2l165 -285q-8 -3 -13 -9l-238 137q-4 -7 -9 -12l239 -138q-1 -5 -1 -9t1 -7h-177q1 -1 2 -3.5t1 -3.5h176q1 -3 2 -4l-149 -87q3 -14 7 -32l195 113l8 4v9v235v234v9l-8 5zM130 181h-2h-2v192v191h2q14 0 24 10l135 -78q-1 -3 -1 -6q0 -13 11 -21zM323 515
q-5 2 -10 2q-11 0 -18 -8l-136 78q2 5 2 9q0 11 -6 19l166 96v0l166 96q1 -3 2 -5zM720 517q-5 0 -10 -2l-166 287q1 2 2 5l166 -96v0l167 -96q-6 -9 -6 -19q0 -4 1 -8l-136 -79q-7 8 -18 8zM907 373v-192h-2h-2l-167 288q11 8 11 21q0 3 -1 6l135 78q10 -10 24 -10h2v-191z
M392 392q0 51 36 87t87 36t87.5 -36t36.5 -87t-36.5 -87t-87.5 -36t-87 36t-36 87z" />
    <glyph glyph-name="weizhi" unicode="&#xe6cb;" 
d="M501 412q61 0 104 43.5t43 104.5t-43 104t-104 43t-104.5 -43t-43.5 -104t43.5 -104.5t104.5 -43.5zM500.5 652q37.5 0 64.5 -26.5t27 -64.5t-26.5 -64.5t-64.5 -26.5t-65 26.5t-27 64.5t27 64.5t64.5 26.5zM273 414l1 -2q45 -66 195 -281l1 -1q13 -16 32 -16q21 0 31 16
v0q193 279 200 288l1 1l1 1q39 66 39 141q0 113 -79.5 192.5t-192.5 79.5t-192.5 -79.5t-79.5 -192.5q0 -80 43 -147zM501 777q89 0 152.5 -63t63.5 -153q0 -58 -31 -112v-1q-5 -7 -90 -130q-62 -88 -88 -126l-6 -9l-6 9q-19 26 -69 98q-101 146 -109 155v1q-35 53 -35 114
q1 90 65 153.5t153 63.5zM924 -63l-165 340h-73l-29 -61h63l110 -227h-639l93 228h68l-31 61h-76l-147 -341h826z" />
    <glyph glyph-name="pingjia" unicode="&#xe67b;" 
d="M649 549q195 -1 291 0q47 1 63.5 -11t7 -30t-38.5 -40l-237 -188q58 -180 89 -274q11 -34 9 -52.5t-14 -22.5t-27 1t-31 16q-248 174 -250 173q-201 -141 -247 -173q-25 -17 -44 -18t-26.5 16.5t4.5 56.5q11 35 33.5 104.5t40 121.5t17.5 51q-199 156 -239 188
q-14 11 -24 21t-16.5 22t-4 20t19.5 13.5t49 5.5h299q57 160 91 253q12 34 25 49t25.5 11.5t23 -19t19.5 -41.5zM411 526q-3 -8 -11.5 -14t-18 -6t-317.5 7q243 -193 256 -202q20 -15 13 -37q-2 -7 -27.5 -81.5t-50 -147.5t-24.5 -72q251 182 263 190q17 11 34 0
q5 -4 71.5 -51t131 -93l64.5 -46q-101 288 -105 301q-8 22 8 34q4 2 71.5 53.5t133 101.5l65.5 50l-327 -6q-21 1 -29 19l-101 294q-96 -283 -100 -294z" />
    <glyph glyph-name="xiangzuojiantou" unicode="&#xe660;" 
d="M346 747l-328 -327q-1 -2 -3 -4v0q-1 -2 -2 -3l-1 -1q-1 -1 -2 -3v0v0q-1 -2 -1 -4h-1q0 -2 -1 -4v0q0 -2 -1 -4v0v-4h-1v-4v-5h1v-4v0q0 -2 1 -4v0q1 -2 1 -4h1q0 -2 1 -4v0v0q1 -2 2 -3l1 -1q1 -1 2 -3v0l3 -3l328 -328q12 -13 30.5 -13t31 13t12.5 31t-13 31l-252 253
h820q18 0 31 12.5t13 31t-13 31t-31 12.5h-820l252 253q13 13 13 31t-12.5 31t-31 13t-30.5 -13v0z" />
    <glyph glyph-name="yunjisuan" unicode="&#xe64b;" 
d="M508 21h-260q-78 0 -133 55t-55 132.5t55 132.5t133 55h42q13 0 22 10t8 23q-1 14 -1 28q0 121 85 206t206 85q69 0 130 -31q59 -29 100 -82q8 -10 20 -11.5t21.5 6t11 20t-5.5 21.5q-49 64 -120 100q-74 37 -157 37q-145 0 -248 -103t-103 -248v-2h-11
q-102 0 -174.5 -72.5t-72.5 -174t72.5 -174t174.5 -72.5h260v0q12 0 21 8.5t9 21.5v0v0q0 12 -9 20.5t-21 8.5v0v0zM734 404q-48 0 -82.5 -34t-34.5 -82.5t34.5 -82.5t82.5 -34t82 34t34 82.5t-34 82.5t-82 34zM734 227q-25 0 -43 18t-18 42.5t18 42.5t43 18t42.5 -18
t17.5 -42.5t-17.5 -42.5t-42.5 -18zM990 206v167q34 20 34 59q0 27 -19.5 47t-47.5 20q-27 0 -46 -19l-109 63v4q0 28 -19.5 47.5t-47.5 19.5t-47.5 -19.5t-19.5 -47.5v-4l-111 -64q-19 19 -47 19t-47.5 -19.5t-19.5 -46.5q0 -20 10.5 -36t26.5 -24v-165q-16 -8 -26.5 -24
t-10.5 -36q0 -27 19.5 -46.5t47.5 -19.5q25 0 44 17l114 -66v-4q0 -28 19.5 -47.5t47 -19.5t47.5 19.5t20 47.5q0 2 -1 4l113 65q19 -17 43 -17q28 0 47.5 20t19.5 47q0 39 -34 59zM891 152l-119 -69q-17 11 -37 11v0q-20 0 -37 -11l-122 70q-3 37 -36 54v165q31 15 36 49
l122 71q17 -11 37 -11v0q20 0 37 11l119 -69q5 -37 40 -52v-163q-17 -7 -28 -22.5t-12 -33.5zM891 152z" />
    <glyph glyph-name="shuju" unicode="&#xe690;" 
d="M214 94l-1 22q-2 0 -6 3v-2q1 -18 -11.5 -32.5t-31 -15.5t-33 11t-15.5 31q-1 22 15 37l-2 2q-5 7 -3 15v1q-3 -3 -6 -5l-3 -3l-23 12h-2q-2 0 -3 -2l-15 -29q0 -1 0.5 -2.5t1.5 -2.5l23 -11v-5v-8t1 -7l1 -5l-22 -14q-1 -1 -1.5 -3t0.5 -3l18 -27q2 -3 6 -1l21 15l4 -3
q6 -4 14 -7l4 -1l2 -26q0 -4 4 -4l32 3q4 0 4 4l-2 25l4 2q8 4 13 9l4 3l23 -11q4 -2 5 2l7 13h-4q-9 -1 -15.5 5t-7.5 15v0zM371 201l-24 12v11q0 5 -1 11l22 15q12 8 4 20l-23 34q-8 12 -20 4l-22 -15q-9 6 -20 9l-2 27q0 6 -4.5 10t-10.5 4l-41 -3q-5 -1 -9 -5t-4 -10
l2 -27q-10 -5 -18 -12l-25 12q-12 6 -19 -7l-18 -37q-6 -13 7 -19l22 -11l2 -1q-1 -5 0 -11q0 -5 1 -11l-22 -15q-12 -8 -4 -19l5 -8l18 -26q8 -12 19 -4l20 13l3 2q9 -6 19 -10l2 -27q1 -6 5 -10t10 -3l17 1l24 1q6 1 10 5.5t4 9.5l-2 27q10 5 18 13l24 -12q13 -7 19 6
l18 37q7 13 -6 19v0zM261 169h-2v0q-27 0 -42 22q-7 11 -8 24q-2 20 11.5 35.5t34 17t36 -12t16.5 -34t-12.5 -36t-33.5 -16.5zM810 645.5q0 15.5 -10 26t-24 10.5h-298q-15 0 -25 -10.5t-10 -26t10 -26.5t25 -11h298q14 0 24 11t10 26.5zM77 436l12 -21q4 -7 12 -3l13 8
q6 -4 12 -6v-16q0 -9 8 -9h24q9 0 9 9v16q6 3 11 6l14 -8q7 -4 11 3l12 21q4 8 -3 12l-13 7l-1 1q1 3 1 6t-1 7l14 8q7 4 3 11l-2 5l-10 16q-4 8 -11 3l-12 -6l-2 -2q-5 4 -11 7v16q0 8 -9 8h-24q-8 0 -8 -8v-16q-6 -2 -12 -7l-14 8q-7 4 -11 -3l-12 -21q-4 -7 3 -11l14 -8
q-1 -3 -1 -6.5t1 -6.5l-14 -8q-7 -4 -3 -12v0zM146 491h2q15 -1 23 -14q4 -7 4 -15q0 -12 -8.5 -20.5t-20.5 -8.5t-20.5 8.5t-8.5 20.5t8.5 20.5t20.5 8.5zM903 829h-827v-73h809v-736h76v754q0 29 -14 42t-44 13zM492 83q-3 5 -7.5 7t-11.5 2q-8 0 -13.5 -4t-8.5 -12
q-3 -7 -3 -20q0 -20 8 -29q6 -7 17 -7q9 0 14.5 4t8 11.5t2.5 20.5q0 10 -1 17q-2 6 -5 10zM484.5 33q-4.5 -6 -11 -6t-11 5.5t-4.5 23t5 24.5q4 5 10.5 5t11 -5.5t4.5 -23t-4.5 -23.5zM537 82q-6 -5 -14 -8v-9q5 2 10 5q6 3 9 6v-56h10v72h-7q-2 -5 -8 -10zM620 83.5
q-3 4.5 -8 6.5t-11 2q-8 0 -13.5 -4t-8.5 -12q-3 -7 -3 -20q0 -20 8 -29q6 -7 17 -7q9 0 14.5 4t8.5 12q2 8 2 20q0 10 -1 17q-2 6 -5 10.5zM612.5 32.5q-4.5 -5.5 -11 -5.5t-11 6t-4.5 23t5 24q4 5 10.5 5t11 -5.5t4.5 -23.5t-4.5 -23.5zM684 83q-3 5 -8 7t-11 2
q-9 0 -14 -4t-8 -12t-3 -20q0 -20 7 -29q7 -7 18 -7q8 0 13.5 4t8.5 12q3 7 3 20q0 10 -2 17q-1 6 -4 10zM676.5 32.5q-4.5 -5.5 -11 -5.5t-11 5.5t-4.5 23t5 24.5q4 5 10.5 5t11 -5.5t4.5 -23.5t-4.5 -23.5zM729 82q-6 -5 -14 -8v-9q5 2 10 5q6 3 9 6v-56h9v72h-6
q-2 -5 -8 -10zM812 83q-3 5 -8 7t-11 2q-9 0 -14 -4t-8 -12t-3 -20q0 -20 8 -29q6 -7 17 -7q9 0 14.5 4t8.5 12q2 7 2 20q0 10 -1.5 16.5t-4.5 10.5zM804 32.5q-4 -5.5 -11 -5.5t-11 6t-4 23t5 24q3 5 10 5t11 -5.5t4 -23.5t-4 -23.5zM437 526q-3 4 -7.5 6.5t-10.5 2.5
q-9 0 -14.5 -4t-8.5 -12t-3 -21q0 -21 8 -30q6 -7 17 -7q9 0 14.5 4t8.5 12t3 21q0 11 -2 17t-5 11zM429.5 474q-4.5 -6 -11 -6t-11 6t-4.5 24t5 25q4 5 10.5 5t11 -6t4.5 -24t-4.5 -24zM495 462v73h-6q-2 -4 -8 -9.5t-14 -8.5v-9l10 5q5 3 9 6v-57h9v0zM554 533q-5 2 -11 2
q-8 0 -13.5 -4t-8.5 -12t-3 -21q0 -21 8 -30q6 -7 17 -7q9 0 14.5 4t8.5 12q2 8 2 21q0 11 -1 17q-2 7 -5 11.5t-8 6.5zM554.5 474q-4.5 -6 -11 -6t-11 6t-4.5 24t5 25q4 5 10.5 5t11 -6t4.5 -24t-4.5 -24zM620 465q6 4 8 12q3 8 3 21q0 11 -2 17q-1 7 -4.5 11.5t-8 6.5
t-10.5 2q-9 0 -14.5 -4t-8.5 -12t-3 -21q0 -21 8 -30q6 -7 18 -7q8 0 14 4zM594.5 474q-4.5 6 -4.5 24t5 25q4 5 10.5 5t11 -6t4.5 -24t-4.5 -24t-11 -6t-11 6zM682 462v73h-6q-2 -4 -8 -9.5t-14 -8.5v-9q5 2 10 5q6 3 9 6v-57h9v0zM749 526q-3 5 -7.5 7t-10.5 2
q-9 0 -14.5 -4t-8.5 -12q-2 -8 -2 -21q0 -21 7 -30q7 -7 18 -7q8 0 13.5 4t8.5 12t3 21q0 11 -2 17q-2 7 -5 11zM741.5 474q-4.5 -6 -11 -6t-10.5 6q-5 6 -5 24t5 25q4 5 10.5 5t11 -6t4.5 -24t-4.5 -24zM812 526q-3 4 -8 6.5t-11 2.5q-8 0 -13.5 -4.5t-8.5 -11.5
q-3 -8 -3 -21q0 -21 8 -30q6 -7 17 -7q9 0 14.5 4t8 12t2.5 21q0 11 -1 17q-2 6 -5 11zM804 474q-4 -6 -10.5 -6t-11 6t-4.5 24t5 25q3 5 10 5t11.5 -6t4 -24t-4.5 -24zM651 224v-57h10v73h-6q-2 -5 -8.5 -10t-14.5 -8v-9q5 2 10 5q6 3 9 6zM729.5 170q5.5 4 8.5 12t3 21
q0 10 -2 17q-1 6 -5 11q-3 4 -7.5 6.5t-10.5 2.5q-9 0 -14.5 -4.5t-8.5 -12.5q-2 -8 -2 -20q0 -21 7 -30q7 -7 18 -7q8 0 13.5 4zM705 179q-5 6 -5 24t5 24q4 5 10.5 5t11 -5.5t4.5 -23.5t-4.5 -24t-10.5 -6q-7 0 -11 6zM785 166q8 0 13.5 4t8.5 12t3 21q0 10 -2 17
q-1 6 -5 11q-2 4 -7 6.5t-11 2.5q-9 0 -14.5 -4.5t-8.5 -12.5q-2 -8 -2 -20q0 -21 7 -30q7 -7 18 -7zM774 227q4 5 10.5 5t11 -5.5t4.5 -23.5t-4.5 -24t-11 -6t-10.5 6t-4.5 24t4.5 24zM737 378q-6 -5 -14 -9v-9q5 2 10 5q6 3 9 7v-60h9v76h-6q-2 -5 -8 -10zM528 312v76h-6
q-3 -5 -9 -10t-14 -9v-9q5 2 10 5q6 3 9 7v-60h10zM592 329q3 9 3 22q0 11 -2 18q-2 6 -5 11t-7.5 7.5t-11.5 2.5q-8 0 -13.5 -4.5t-8.5 -12.5q-3 -9 -3 -22q0 -21 8 -31q6 -8 17 -8q9 0 14 5q6 4 9 12zM569.5 320q-6.5 0 -11 6t-4.5 25t5 25q4 6 10.5 6t11 -6t4.5 -25
t-5 -25q-4 -6 -10.5 -6zM625 312q9 0 14.5 4.5t8.5 13.5q2 8 2 21q0 11 -1 18q-2 6 -5 11t-8 7.5t-11 2.5q-8 0 -13.5 -4.5t-8.5 -13t-3 -21.5q0 -21 8 -31q6 -8 17 -8zM615 376q4 6 10.5 6t11 -6t4.5 -25t-4.5 -25t-11 -6t-11 6t-4.5 25t5 25zM695 312v76h-6q-2 -5 -8 -10
t-14 -9v-9q5 2 10 5q6 3 9 7v-60h9zM807 312v76h-6q-2 -4 -8 -9.5t-14 -9.5v-9q5 2 10 5t9 7v-60h9z" />
    <glyph glyph-name="yuzhouxingqiu-12" unicode="&#xe64e;" 
d="M282 365q0 -91 66 -157.5t157.5 -66.5t158 66.5t66.5 157.5t-66.5 157.5t-157.5 66.5q-62 0 -112.5 -31t-79.5 -84h-13q-18 0 -28.5 -11.5t-10.5 -27.5q0 -25 26 -38q-6 -7 -6 -32zM506 570q86 0 145 -59.5t59 -146t-59 -145.5t-145.5 -59t-145.5 59t-59 146v32
q14 0 26 12t12 26q0 19 -13 32q30 49 76.5 76t103.5 27zM512 13q94 0 175.5 47.5t129 128.5t47.5 176q0 72 -28 137t-81 112q7 13 7 32q0 29 -21 50t-50 21q-36 0 -57 -32q-64 32 -122 32q-94 0 -175.5 -47.5t-129 -129t-47.5 -176t47.5 -175.5t129 -128.5t175.5 -47.5z
M512 698q58 0 115 -20q0 -3 -3 -12.5t-3 -12.5q0 -29 20.5 -50t49.5 -21q32 0 51 20q48 -44 75.5 -107t27.5 -130q0 -92 -44.5 -168.5t-121 -120.5t-167.5 -44t-167.5 44t-121 120.5t-44.5 168t44.5 168t121 121t167.5 44.5zM506 365zM378 365q0 -53 37.5 -90.5t90.5 -37.5
t90.5 37.5t37.5 90.5t-37.5 90.5t-90.5 37.5t-90.5 -37.5t-37.5 -90.5z" />
    <glyph glyph-name="jiqiren" unicode="&#xe673;" 
d="M459 469q0 -23 -16.5 -39.5t-39.5 -16.5t-39.5 16.5t-16.5 39.5t16.5 39t39.5 16t39.5 -16t16.5 -39zM624 413q23 0 39 16.5t16 39.5t-16 39t-39 16t-39.5 -16t-16.5 -39t16.5 -39.5t39.5 -16.5zM845 105v-111q0 -23 -16.5 -39.5t-39.5 -16.5h-555q-23 0 -39 16.5
t-16 39.5v111q0 23 16 39.5t39 16.5h166v0v58h-109q-23 0 -39.5 16.5t-16.5 39.5v387q0 23 16.5 39.5t39.5 16.5h109v55q0 24 16.5 40t39.5 16h112q23 0 39.5 -16t16.5 -40v-55h110q24 0 40 -16.5t16 -39.5v-387q0 -23 -16 -39.5t-40 -16.5h-110v-58v0h165q23 0 39.5 -16.5
t16.5 -39.5zM456 718h112v55v0h-112v0v-55zM456 275h278h1v387h-1h-443v0v-387v0h165zM789 105v0h-165q-23 0 -39.5 16.5t-16.5 39.5v58v0h-112v0v-58q0 -23 -16.5 -39.5t-39.5 -16.5h-166v0v-111v0h555v0v111v0zM845 611v0q-11 0 -19 -8t-8 -20v-229q0 -11 8 -19.5
t19.5 -8.5t19.5 8.5t8 19.5v229q0 12 -8 20t-20 8zM928 554v0q-11 0 -19 -8.5t-8 -19.5v-111q0 -12 8 -20t19.5 -8t19.5 8t8 20v111q0 11 -8 19.5t-20 8.5zM206 354v229q-1 12 -9 20t-19.5 8t-19.5 -8t-8 -20v-229v-1q0 -11 8 -19t19.5 -8t20 8t8.5 19v1zM94.5 554
q-11.5 0 -19.5 -8.5t-8 -19.5v-111q0 -12 8 -20t19.5 -8t20 8t8.5 20v111q0 11 -8.5 19.5t-20 8.5z" />
    <glyph glyph-name="yuan" unicode="&#xe65f;" 
d="M512 612q94 0 161 -67t67 -161t-67 -161t-161 -67t-161 67t-67 161t67 161t161 67z" />
    <glyph glyph-name="dianjitubiao" unicode="&#xe649;" 
d="M908 274l-456 268q-12 7 -19 2t-4 -19l97 -517q2 -14 10 -15.5t16 10.5q62 87 113 140l97 -143q7 -10 19.5 -12t22.5 5l33 22q10 7 12 19t-5 23l-97 142q29 12 68.5 24.5t63.5 18.5l25 6q14 4 15 11.5t-11 14.5zM931 389q0 3 -1 6q1 -5 1 -7v0v1zM850 386v-5v8v-3z
M382 -35l-6 2zM428 55q-3 0 -6 1q-118 27 -194 123.5t-75 219.5q1 94 48.5 173.5t128.5 125.5t175 45q136 -2 234.5 -95t108.5 -227v0q0 -3 1 -5q3 -18 20 -24q2 0 5 -1h2q1 -1 2 -1t2 1q12 0 20 8.5t8 20.5v1v4q-5 64 -29 124q-30 74 -86 131t-129 89q-75 33 -158 34
t-159 -31q-74 -30 -131 -85.5t-89 -128.5q-33 -76 -34 -159q-2 -155 100 -271q87 -101 216 -131q3 -1 6 -1h3q13 0 22 8.5t9 21.5q0 22 -21 29z" />
    <glyph glyph-name="changshi-" unicode="&#xe601;" 
d="M266 -51h70q17 18 34.5 46t32.5 36q-12 2 -27 0q-30 -3 -46 -9.5t-21.5 -14t-17 -25.5t-25.5 -33zM675 -54h70q-35 43 -54 56.5t-46 10.5q-19 -2 -28 -5q4 -2 7.5 -4.5t7.5 -7t7 -7t8.5 -9.5t7.5 -9.5t9.5 -11.5t10.5 -13zM335 -81q20 21 36 45.5t23 35.5t26 21t53 15
q4 -23 11 -50q4 -4 11 -5q-30 131 -27 235q0 19 1 38q-135 23 -175 77q-20 28 -34 50.5t-17 31.5l-3 9q8 0 20.5 -1t41 -9t44.5 -24q94 -94 108 -107l15 -14q2 44 4 85q-30 21 -57 43.5t-57.5 60t-37.5 69.5q-9 42 -12.5 74.5t-3.5 43.5l1 12q4 -2 9.5 -4.5t20.5 -11.5
t27.5 -19t25.5 -25.5t19 -31.5q57 -153 66 -175q5 81 12 140q-22 156 23 221q24 36 45 61t30 32l8 7q2 -3 4 -9t5.5 -23t5 -33t-0.5 -36t-9 -36q-72 -146 -83 -170l-1 -3q-19 -191 -21 -290q28 172 96 225q36 28 66 47t42 24l11 4q1 -10 0.5 -27.5t-10.5 -55.5t-31 -59
q-122 -128 -140 -148l-34 -39v-9q2 -60 25 -171q38 -1 70 -26t89 -95h-341z" />
    <glyph glyph-name="fenbu-" unicode="&#xe60d;" horiz-adv-x="1354" 
d="M427 436l264 -153l264 153l-264 152zM687 414q-5 20 -5 29q-1 27 19.5 44t49.5 23q12 3 25 3h14q11 -1 10 -5l-5 -8q-5 -7 -5 -15v-1q0 -25 -3 -33q-7 -25 -34 -28q-4 0 -13.5 -0.5t-15.5 -1.5t-13 -3.5t-10 -7.5t-5 -16.5t-3 -14.5q-1 -4 -5 -5t-7.5 2t-2.5 8l2 17
q-7 8 -16 14q-3 3 -9 3.5t-10.5 -0.5t-11.5 -3t-10 -3q-21 -4 -32 13q-4 5 -11 23q-2 7 -7 11l-6 4q-2 4 6 7v0q15 6 30 8q53 6 67 -29q4 -10 4 -26q9 -8 12 -11l0.5 1zM716 268l264 -152l265 152l-265 153zM976 247q-4 20 -5 29q0 27 20.5 43.5t49.5 23.5q12 2 25 3h14
q11 -1 10 -5q0 -1 -1 -2.5t-2.5 -3t-1.5 -2.5q-5 -7 -5 -16q-1 -25 -3 -33q-7 -25 -35 -28q-3 -1 -12.5 -1.5t-15.5 -1t-13 -3.5t-10.5 -8t-5 -16t-2.5 -15q-1 -3 -5 -4t-7.5 1.5t-2.5 8.5l2 17q-7 8 -16 14q-3 3 -9 3.5t-10.5 -0.5t-11.5 -3t-10 -3q-21 -4 -33 12
q-4 6 -10 24q-2 7 -7 11q-6 4 -7 4q-1 3 7 7v0q14 6 30 7q53 6 67 -29q3 -9 4 -25l11 -11zM139 270l264 -153l264 153l-264 152zM399 248q-5 20 -5 29q-1 27 19.5 43.5t49.5 23.5q13 2 25 3h14q11 -1 11 -5q0 -1 -1.5 -2.5l-3 -3t-1.5 -2.5q-5 -7 -5 -16q0 -25 -3 -33
q-7 -25 -34 -28q-3 -1 -13 -1t-16 -1t-13 -4t-10 -8t-5 -16t-3 -14q-1 -4 -5 -5t-7 1.5t-3 8.5l2 17q-7 8 -15 14q-4 3 -10 3.5t-10.5 -0.5t-11.5 -3t-9 -3q-21 -4 -33 13q-4 5 -11 23q-2 7 -7 11l-6 4q-2 4 6 7h1q14 6 29 7q54 6 67 -29q4 -9 4 -25q10 -9 12 -11q0 1 1 2z
M428 102l265 -152l264 152l-264 153zM689 80q-5 20 -5 30q-1 27 19.5 43.5t49.5 23.5q12 2 25 3q8 0 14 -1q11 0 10 -4l-5 -8q-5 -7 -5 -16v0q0 -25 -3 -33q-7 -25 -34 -29q-4 0 -13.5 -0.5t-15.5 -1t-13 -3.5t-10 -8t-5 -16t-3 -15q-1 -3 -5 -4t-7.5 1.5t-2.5 8.5l2 17
q-7 8 -16 14q-3 3 -9 3.5t-10.5 -1t-11.5 -3.5t-10 -2q-21 -5 -33 12q-3 6 -10 24q-2 6 -7 10l-6 5q-2 3 6 6v1q15 5 30 7q53 6 67 -29q3 -9 4 -26q9 -8 12 -10q0 1 1 1z" />
    <glyph glyph-name="baogao-" unicode="&#xe60e;" 
d="M784 746h-544q-8 0 -13.5 -5.5t-5.5 -13.5v-713q0 -8 5.5 -13.5t13.5 -5.5h544q8 0 13.5 5.5t5.5 13.5v713q0 8 -5.5 13.5t-13.5 5.5zM528 35q-9 -7 -20 -7q-13 0 -22 9t-9 22q0 17 15 26q9 8 20 8q13 0 22 -9t9 -22q0 -18 -15 -27zM758 146q0 -11 -11 -17q-5 -5 -13 -5
h-453q-8 0 -13.5 5.5t-5.5 13.5v522q0 12 10 17q6 6 14 6v0h452q8 0 14 -6t6 -14v-522zM330 565h31q6 0 10.5 4.5t4.5 11.5v31q0 6 -4.5 10.5t-10.5 4.5h-31q-6 0 -10.5 -4.5t-4.5 -10.5v-31q0 -7 4.5 -11.5t10.5 -4.5zM438 565h31q6 0 10.5 4.5t4.5 11.5v31q0 6 -4.5 10.5
t-10.5 4.5h-31q-7 0 -11.5 -4.5t-4.5 -10.5v-31q0 -7 4.5 -11.5t11.5 -4.5zM546 565h31v0q6 0 10.5 4.5t4.5 11.5v0v31v0q0 6 -4.5 10.5t-10.5 4.5h-31q-6 0 -10.5 -4.5t-4.5 -10.5v-31q0 -7 4.5 -11.5t10.5 -4.5zM685 627h-31v0q-6 0 -10.5 -4.5t-4.5 -10.5v0v-31v0
q0 -7 4.5 -11.5t10.5 -4.5h31q9 0 13 8q3 3 3 8v31q0 6 -4.5 10.5t-11.5 4.5zM326 478h254q5 0 8 3.5t3 8.5v13v0q0 4 -3 7.5t-8 3.5v0h-254v0q-4 0 -7.5 -3.5t-3.5 -7.5v0v-13v0q0 -5 3.5 -8.5t7.5 -3.5v0zM677 437h-351v0q-11 0 -11 -11v0v-13q0 -11 11 -12v0h351
q4 0 7.5 3.5t3.5 8.5v13v0q0 5 -3.5 8t-7.5 3v0zM677 360h-351v0q-11 0 -11 -11v0v-13v0q0 -5 3.5 -8.5t7.5 -3.5v0h351q4 0 7.5 3.5t3.5 8.5v13v0q0 5 -3.5 8t-7.5 3v0zM677 284h-351v0q-4 0 -7.5 -3.5t-3.5 -8.5v-13v0q0 -5 3.5 -8t7.5 -3v0h351q4 0 7.5 3t3.5 8v13v0
q0 5 -3.5 8.5t-7.5 3.5v0zM677 208h-351v0q-4 0 -7.5 -3.5t-3.5 -8.5v-13v0q0 -5 3.5 -8t7.5 -3v0h351q4 0 7.5 3t3.5 8v13v0q0 5 -3.5 8.5t-7.5 3.5v0z" />
    <glyph glyph-name="tongji-" unicode="&#xe60f;" 
d="M743 65v44h-28v-44h-144v44h-29v-44h-144v44h-28v-44h-144v44h-29v-44h-76v694h-28v-723h838v29h-188zM163 515h375q9 0 12 9v0q1 2 1 5v89q0 6 -4 10t-9 4h-19v0h-356q-6 0 -10 -4t-4 -10v-89q0 -6 4 -10t10 -4zM368 523q1 3 1 6v4l10 -10h-11v0zM393 523l-24 24v28
l52 -52h-28zM434 523l-65 65v28l93 -93h-28zM527 624l16 -16v-28l-44 44h28zM486 624l57 -58v-27l-85 85h28v0zM445 624l97 -98q-1 -3 -4 -3h-21l-100 101h28v0zM403 624l100 -101h-27l-101 101h28zM163 165h389h1v0h18v0h14v0h27h1h13v0h28v0h13v0h28v0h14v0h25q1 0 2 1h1
h2v0q4 2 6 4v1q3 3 3 8v17v-1v14v0v28v0v13v1v17q0 6 -4 10t-10 4h-284v0h-1h-286q-6 0 -10 -4t-4 -10v-89q0 -6 4 -10t10 -4zM576 174l-10 10v28l38 -38h-28zM618 174l-52 51v28l80 -79h-28zM659 174l-93 93v1q0 3 -1 6h22l100 -100h-28zM701 174l-101 100h28l100 -100h-27
zM739 179v-2l-97 97h27l70 -70v-25zM739 218l-56 56h28l28 -29v-27zM739 268v-9l-15 15h10q5 0 5 -6zM163 340h357v0h41v0h42v0h41v0v0q6 0 9.5 4t3.5 10v1v0v14v0v27v0v14v0v28v0v5q0 6 -4 10t-9 4h-481q-6 0 -10 -4t-4 -10v-89q0 -6 4 -10t10 -4zM474 348q1 3 1 6v18
l23 -24h-24zM512 348l-37 37v28l65 -65h-28zM644 449q5 0 5 -6v-25l-31 31h26v0zM605 449l44 -44v-28l-72 72h28zM564 449l85 -86v-9q0 -6 -5 -6h-8l-100 101h28zM522 449l101 -101h-28l-101 101h28zM581 348h-28l-78 78v17q0 3 -1 6h7z" />
    <glyph glyph-name="qixiang" unicode="&#xe610;" horiz-adv-x="1310" 
d="M707 392q-37 69 -104.5 109t-145.5 40q-108 0 -187 -67.5t-93 -170.5q-55 -12 -91 -56.5t-36 -102.5q0 -67 47.5 -115t115.5 -48q57 0 101 35q68 -43 143 -43q67 0 119 28q20 -11 51 -19.5t54 -8.5v0q87 0 149 61.5t62 148.5q0 80 -53 140t-132 69zM681 30v0q-20 0 -46 8
t-42 19q-7 6 -16 6q-6 0 -12 -3q-3 -1 -5 -3q-27 -16 -48.5 -21.5t-54.5 -5.5q-67 0 -128 45q-8 5 -17 5h-0.5h-0.5q-13 0 -21 -9q-31 -33 -77 -33q-44 0 -75 31t-31 75t31 75t75 31q31 0 57 -17q7 -4 15 -4q12 0 20.5 8.5t8.5 19.5q0 16 -13 24q-31 20 -66 24
q14 79 76.5 129t145.5 50q55 0 104 -25t81 -69q-34 -6 -72 -30.5t-58 -51.5q-6 -8 -6 -17q0 -12 8.5 -20t19.5 -8q15 0 23 11q19 26 55.5 44.5t68.5 18.5q64 0 109 -45t45 -108.5t-45 -108.5t-109 -45zM891 583v50q-1 7 -6 12t-12 5t-12 -5t-5 -12v-50q11 1 22 1q6 0 13 -1z
M1075 496l35 36q5 5 5 12t-5 12t-12 5t-12 -5l-36 -36q14 -11 25 -24zM1194 305v0q7 0 12 5t5 12v0q0 7 -5 12t-12 5v0h-50q1 -16 0 -34h50zM1072 396q-32 80 -112 114t-161 1q-35 -14 -63 -40q9 -10 17 -22q23 23 53 35q31 12 64 12q19 0 38 -4q6 -2 10.5 -7.5t4.5 -11.5
q0 -9 -6 -14.5t-14 -5.5h-4q-15 3 -29 3q-17 0 -38.5 -6.5t-35.5 -16.5q75 -32 121.5 -101.5t46.5 -153.5q0 -27 -5 -54q79 33 112.5 112.5t0.5 159.5zM1112 445q7 -14 13 -28q4 -9 7 -19l111 45q16 7 16 24q0 10 -7.5 17.5t-18.5 7.5q-5 0 -9 -1l-112 -46v0v0zM1047 664
q2 5 2 10q0 11 -7.5 18.5t-17.5 7.5q-17 0 -24 -16l-47 -111v0v0q25 -7 48 -19zM1006 83v0v1q-14 -8 -28 -14q-9 -3 -19 -7l45 -111q2 -7 9 -11.5t15 -4.5q5 0 9 2q7 3 11.5 10t4.5 14q0 5 -2 9zM1081 145q-11 -13 -24 -25l35 -35q5 -5 12.5 -5t12.5 5t5 12.5t-5 12.5z
M1245 195l-111 47v0v0q-8 -24 -19 -47l110 -47q5 -2 10 -2q17 0 24 16q2 4 2 10q0 17 -16 23zM750 551q14 7 28 13q8 4 19 7l-45 111q-2 7 -9 11.5t-14 4.5q-11 0 -18.5 -7.5t-7.5 -17.5q0 -5 2 -10l45 -111v-1z" />
    <glyph glyph-name="hanqing-" unicode="&#xe613;" 
d="M545 629q72 12 131 -30t71 -113.5t-30 -131t-113.5 -71.5t-131 30t-71.5 114t30 131t114 71zM682 551q-6 -1 -9.5 -5.5t-3.5 -9.5q0 -6 4.5 -10.5t10.5 -4.5h3q12 3 12 15q0 6 -4.5 10.5t-10.5 4.5h-2zM626 564q-12 -2 -12 -15q0 -6 4.5 -10t10.5 -4h2q13 2 13 14
q0 7 -4.5 11t-10.5 4h-3zM645 520q-13 -2 -13 -15v-2q3 -13 15 -13h3q12 2 12 15v3q-2 12 -15 12h-2zM690 497q-12 -2 -12 -14q0 -7 4.5 -11t10.5 -4h2q13 2 13 15q0 6 -4.5 10.5t-10.5 4.5q-1 0 -3 -1zM649 473q-12 -2 -12 -14q0 -7 4 -11t11 -4h2q13 2 13 15
q0 6 -4.5 10.5t-10.5 4.5q-2 0 -3 -1zM694 453q-13 -2 -13 -14q0 -7 4.5 -11t10.5 -4h3q12 2 12 15q0 6 -4.5 10.5t-10.5 4.5q-1 0 -2 -1zM590 539q-13 -2 -13 -15q0 -6 4.5 -10.5t10.5 -4.5t10.5 4.5t4.5 10.5v3q-2 12 -15 12h-2zM639 416q-12 -2 -12 -15q0 -6 4 -10.5
t11 -4.5h2q13 3 13 15q0 6 -4.5 10.5t-10.5 4.5h-3zM580 591q-6 -1 -9.5 -5t-3.5 -10t4.5 -10.5t10.5 -4.5h3q12 3 12 15q0 6 -4.5 10.5t-10.5 4.5h-2zM523 647q-8 18 -19 33q-20 27 -53 63q-7 7 -10 11q-5 -15 -5 -32q1 -24 12 -63q5 -19 13 -38l1 -2q-15 -11 -28 -23
q-15 11 -33 19q-31 14 -77 28q-10 3 -14 4q3 -15 12 -30q12 -20 41 -49q15 -14 31 -26l2 -1q-8 -17 -13 -34q-10 1 -20 1q-9 0 -18 -1q-33 -3 -81 -15q-9 -2 -14 -3q10 -11 25 -19q21 -12 60 -22q21 -5 40 -8h2q2 -18 6 -35q-18 -8 -33 -19q-27 -20 -63 -54q-6 -6 -10 -9
q14 -5 31 -5q24 0 63 11q20 6 38 14l3 1q10 -15 23 -28q-12 -15 -20 -33q-13 -31 -27 -77q-3 -10 -5 -14q15 3 30 12q20 12 49 41q14 14 26 30l2 2q16 -7 33 -12q-2 -20 0 -38q4 -33 15 -81q2 -10 3 -14q11 10 20 25q11 21 22 60q5 20 7 40v2q9 1 17 2q10 2 19 4
q7 -18 19 -33q19 -27 53 -63q8 -9 10 -10q5 14 4 31q0 24 -11 63q-5 20 -13 38l-1 3q15 10 27 23q16 -13 33 -20q31 -13 78 -27q10 -4 14 -5q-3 15 -12 30q-13 21 -42 49q-14 14 -30 26l-2 2q8 16 12 33q20 -2 39 0q33 4 81 15q9 2 14 3q-10 11 -25 20q-21 11 -61 21
q-19 5 -39 8h-3q0 9 -2 17q-1 9 -4 19q18 7 33 18q28 20 63 54q8 7 11 10q-15 4 -32 4q-24 0 -63 -11q-19 -6 -38 -13l-2 -1q-10 14 -23 27q12 15 19 33q14 31 28 78q3 11 4 14q-15 -4 -29 -12q-21 -13 -49 -42q-14 -14 -27 -30l-1 -2q-16 8 -34 12q3 20 1 38q-4 34 -15 81
l-4 14q-11 -10 -19 -25q-12 -20 -22 -60q-5 -19 -8 -39v-3q-8 -1 -17 -2t-18 -4zM654 689q-4 34 -16 84q-6 26 -6 29l8 29l-28 -13q-30 -16 -49 -49q-13 -24 -24 -67q-2 -8 -4 -17l-8 12q-21 29 -56 65q-19 20 -19 22l-9 30l-17 -26q-18 -29 -18 -66q1 -28 13 -70
q2 -9 5 -17q-7 3 -13 6q-33 14 -81 29q-26 7 -28 9l-22 21l-2 -30q-2 -35 18 -67q14 -24 45 -55q7 -6 13 -12q-7 0 -14 -1q-36 -4 -84 -15q-27 -6 -29 -6l-30 7l14 -27q15 -31 48 -49q24 -13 67 -24q9 -3 17 -4q-6 -4 -12 -9q-28 -21 -65 -55q-20 -19 -22 -20l-29 -8l25 -17
q29 -19 67 -18q27 0 70 12q8 3 17 5q-4 -6 -6 -13q-14 -32 -29 -80q-8 -26 -10 -28l-21 -22l31 -2q34 -2 66 17q24 15 55 46q6 7 12 13q0 -7 1 -14q4 -35 16 -85q6 -26 5 -29l-7 -29l27 14q31 15 49 48q14 24 25 67q2 9 4 17l8 -12q21 -28 56 -65q18 -20 19 -22l9 -30l16 26
q19 29 19 67q-1 27 -13 70q-2 8 -5 17q6 -4 13 -7q32 -14 81 -28q26 -8 28 -10l22 -21l1 30q2 35 -17 67q-14 24 -46 55q-6 6 -13 12q8 0 15 1q34 4 84 15q27 7 29 6l30 -7l-14 27q-16 31 -49 49q-23 13 -67 25q-8 2 -17 3q7 4 12 9q29 21 66 55q19 19 22 20l29 8l-26 17
q-28 19 -66 18q-27 0 -70 -12q-8 -2 -17 -5q3 6 6 13q14 32 29 81q8 25 9 27l22 22l-31 2q-34 2 -67 -17q-23 -14 -54 -46q-6 -6 -12 -13q-1 7 -1 15zM316 120q29 -46 16.5 -95t-61.5 -74q-27 -14 -57 -14t-56 13q-50 26 -63 75t17 95q14 22 44 62t42 58q10 15 15.5 15
t15.5 -15q12 -18 42.5 -58t44.5 -62zM301 1q-26 -12 -55 -12q-31 0 -59 15q-62 32 -68 95q-13 -36 1 -70t50 -53q23 -11 49 -11t50 12q18 9 32 24z" />
    <glyph glyph-name="jiangshui-" unicode="&#xe618;" 
d="M772 697q-40 74 -114 118t-159 44q-117 0 -203.5 -73.5t-102.5 -186.5q-60 -13 -99.5 -61.5t-39.5 -111.5q0 -74 52.5 -126t125.5 -52q63 0 111 38q74 -47 156 -47q74 0 130 31q22 -13 55.5 -22t59.5 -9v0q95 0 162.5 67.5t67.5 162.5q0 87 -58 152t-144 76zM744 301v0
q-22 0 -50.5 9t-46.5 21q-7 6 -17 6q-7 0 -13 -3q-3 -1 -6 -3q-29 -17 -52.5 -23.5t-59.5 -6.5q-73 0 -140 49q-8 6 -18 6h-1.5h-0.5q-13 0 -23 -10q-33 -36 -84 -36q-48 0 -82 34t-34 82t34 82t82 34q34 0 63 -19q8 -5 17 -5q12 0 21.5 9.5t9.5 21.5q0 17 -15 26
q-33 22 -72 27q16 85 84 140t159 55q60 0 113.5 -27.5t88.5 -75.5q-37 -7 -78.5 -33t-63.5 -56q-6 -8 -6 -19q0 -12 9 -21.5t21 -9.5q16 0 25 13q21 28 61 48.5t75 20.5q69 0 118.5 -49.5t49.5 -119t-49.5 -118.5t-118.5 -49zM268 187q-2 -16 -21 -49.5t-36.5 -69.5
t-17.5 -61q0 -31 22 -53t53 -22t53 22t22 53q0 26 -17.5 62t-36.5 68.5t-21 49.5zM527 187q-2 -16 -21 -49.5t-36.5 -69.5t-17.5 -61q0 -30 22 -52t53 -22t53 22t22 52q0 26 -17.5 62t-36.5 68.5t-21 49.5zM786 187q-2 -16 -21 -49.5t-36.5 -69.5t-17.5 -61q0 -31 22 -53
t53 -22t53 22t22 53q0 26 -17.5 62t-36.5 68.5t-21 49.5z" />
    <glyph glyph-name="jiwen-" unicode="&#xe61b;" 
d="M819 46q-35 0 -70 9.5t-62 24t-40 23t-22 15.5q-34 26 -72.5 35t-67 5t-56.5 -15.5t-38.5 -18t-16.5 -11.5l-3 -1q-49 -29 -99.5 -39t-84.5 -6.5t-67 16t-44 19.5t-18 13q-11 8 -14 21.5t3 24.5t17.5 13t21.5 -6q6 -4 15 -9.5t35 -14.5t54 -11.5t68.5 6t81.5 32.5
q10 7 24.5 16t49.5 22t69.5 16t81 -9t89.5 -44l1 -1l20 -15t45.5 -24t67 -19.5t78.5 8t85 48.5q9 7 20.5 5t19.5 -13.5t7.5 -24.5t-9.5 -21q-77 -69 -170 -69zM973.5 357q-7.5 11 -19.5 13.5t-21 -5.5q-101 -90 -226 -39v-66q48 -17 94 -17q93 0 170 68q9 8 9.5 21.5
t-7 24.5zM259 339q-31 -9 -62 -10t-51.5 3.5t-40 12.5t-26 12.5t-10.5 7.5q-11 8 -22.5 6t-17.5 -13.5t-2.5 -25t13.5 -21.5q3 -2 7 -5t16 -9.5t25 -12.5t33 -11.5t40 -8t46 -1.5t52 7v69zM214 577q-31 0 -53 22t-22 52q0 32 22 54t53 22q30 0 52.5 -22t22.5 -54v-1
q0 -12 -6.5 -27.5t-15.5 -24.5t-24.5 -15t-27.5 -6h-1zM214 696q-18 0 -31 -13q-13 -12 -13 -31v0q0 -18 13 -31t31 -13t31 13t13 31t-13 31q-12 13 -30 13h-1zM620 331q-48 -21 -112 -21q-91 0 -145.5 55.5t-54.5 144.5q0 97 60.5 157t154.5 60q53 0 97 -15v-52
q-42 21 -95 21q-72 0 -117.5 -45t-45.5 -122q0 -73 42.5 -115.5t112.5 -42.5q59 0 103 24v-49v0z" />
    <glyph glyph-name="rizhao-" unicode="&#xe61c;" 
d="M717 804q2 5 2 11q0 13 -9 22.5t-22 9.5q-9 0 -17.5 -5.5t-11.5 -13.5l-58 -136v-1q30 -9 58 -23zM524 704v61q0 8 -6.5 14t-15 6t-14.5 -6t-6 -14v-62q20 2 42 1zM258 589q15 16 30 30l-43 43q-6 6 -15 6t-15 -6t-6 -15t6 -15zM351 665v-0.5v-0.5q18 10 35 16q10 5 23 9
l-55 137q-4 8 -12.5 13.5t-16.5 5.5q-13 0 -22.5 -9t-9.5 -22q0 -6 2 -12zM57 527l136 -58h1q9 30 24 58l-137 58q-5 2 -12 2q-13 0 -22 -9t-9 -22q0 -9 5.5 -17.5t13.5 -11.5zM796 534q10 -17 16 -34q5 -11 9 -24l137 55q8 4 14 12.5t6 17.5q0 6 -3 11q-3 9 -11.5 14.5
t-17.5 5.5q-6 0 -12 -2l-137 -56h-0.5h-0.5zM897 361q9 0 15 6.5t6 15t-6 14.5t-15 7h-62q2 -21 1 -43h61zM751 597l43 43q6 7 6 15.5t-6 15t-15 6.5t-15 -7l-43 -43q16 -14 30 -30zM300 -51q-2 -6 -2 -12q0 -13 9 -22t22 -9q6 0 12 2q12 5 17 17l58 136v1q-30 9 -58 24z
M666 88v1q-17 -9 -34 -16q-12 -5 -24 -9l55 -137q3 -8 12 -14t18 -6q13 0 22 9t9 23q0 6 -2 12zM120 392q-9 0 -15 -6t-6 -15t6 -15t15 -6v0h62q-1 13 -1 26v16h-61zM759 165q-14 -17 -30 -31l43 -43q7 -6 15.5 -6t15 6t6.5 15t-7 15zM493 49v-61q0 -9 6.5 -15t15 -6t15 6
t6.5 15v0v62q-22 -2 -43 -1zM266 156l-43 -43q-6 -6 -6 -15t6.5 -15t14.5 -6q9 0 15 6l44 44q-17 13 -31 29zM221 219q-9 17 -16 35q-5 11 -9 23l-137 -55q-8 -4 -13.5 -12t-5.5 -17q0 -13 9.5 -22.5t22.5 -9.5q6 0 11 2l137 56h1zM960 226l-136 58h-0.5h-0.5
q-9 -30 -23 -58l136 -58q6 -2 12 -2q9 0 17.5 5.5t11.5 13.5q3 6 3 12q0 9 -6 17.5t-14 11.5zM748 473q-27 65 -82 107.5t-120.5 51t-133.5 -15.5q-65 -27 -107.5 -82t-51 -120.5t16.5 -133.5q26 -65 81 -107.5t120.5 -51t133.5 16.5q65 26 107.5 81t51 120.5t-15.5 133.5z
M563 562q-1 -8 -8 -13.5t-16 -5.5q-2 0 -5 1q-18 4 -36 4q-31 0 -60 -12q-26 -10 -51.5 -35.5t-36.5 -51.5q-13 -30 -13 -62t12 -61q2 -4 2 -8q0 -10 -7.5 -17.5t-17.5 -7.5q-16 0 -22 15q-16 38 -16 79q0 42 17 82q14 33 47.5 66t67.5 46q37 16 78 16q24 0 47 -6
q10 -2 15.5 -10.5t2.5 -18.5z" />
    <glyph glyph-name="diwen-" unicode="&#xe621;" 
d="M873 190h-728q-10 0 -17 -6.5t-7 -16.5t7 -16.5t17 -6.5h728q9 0 15.5 7t6.5 16t-6.5 16t-15.5 7zM954 370h-890q-12 0 -20 -8.5t-8 -20t8 -20t20 -8.5h890q11 1 19 9t8 19.5t-8 19.5t-19 9zM836 575q-6 15 -22 15q-5 0 -9 -1l-105 -43h-1q7 -13 13 -26l6 -18l105 42
q9 4 13 13t0 18zM810 446h-81q1 -15 1 -32h80q7 0 11.5 5t4.5 11.5t-4.5 11t-11.5 4.5zM665 594l33 33q4 5 4 11.5t-4.5 11.5t-11.5 5t-11 -5l-34 -33q13 -11 24 -23zM230 438h-81q-7 0 -11.5 -5t-4.5 -11.5t4.5 -11.5t11.5 -5v0h81q-1 10 -1 20q0 6 1 13zM639 752q2 4 2 9
q0 10 -7.5 17t-17.5 7q-15 0 -22 -14l-44 -105v0q23 -7 45 -18zM239 496v0v0q7 23 18 45l-104 44q-4 2 -9 2q-10 0 -17 -7t-7 -17q0 -16 15 -23zM289 588q10 12 22 23l-33 33q-4 5 -11 5t-11.5 -5t-4.5 -11.5t4 -11.5zM492 676l-1 46q0 7 -4.5 11.5t-11 4.5t-11.5 -4.5
t-5 -11.5v-47q16 2 33 1zM359 646l1 -1q13 8 26 13q8 3 18 6l-43 105q-6 15 -22 15q-10 0 -17 -7t-7 -17q0 -5 2 -9zM662 500q-31 75 -106 107t-150 1q-51 -20 -87 -73.5t-36 -108.5q0 -28 8 -55h-127v-41h614v41h-109q7 27 7 55q0 38 -14 74zM323 373q-11 29 -11 60
q0 33 12 63q11 25 36.5 50.5t51.5 35.5q29 12 60 12q18 0 35 -4q6 -2 10.5 -7t4.5 -11q0 -3 -1 -5q-1 -6 -6.5 -10t-11.5 -4h-4q-13 3 -27 3q-24 0 -46 -9q-20 -7 -39.5 -26.5t-27.5 -39.5q-10 -23 -10 -48q0 -24 9 -46q1 -3 1 -7q0 -5 -2 -9h-33q0 1 -1 2z" />
    <glyph glyph-name="qiwen" unicode="&#xe622;" 
d="M664 378v348v0q0 63 -44.5 107.5t-107.5 44.5v0v0q-63 0 -107.5 -44.5t-44.5 -107.5v0v-348q-54 -37 -85 -95t-31 -125q0 -111 78.5 -189.5t189.5 -78.5t189.5 78.5t78.5 189.5q0 67 -31 125t-85 95zM512 -38q-81 0 -138 57.5t-57 138.5q0 42 24.5 89t59.5 71l31 22v386
q0 33 23.5 56.5t56.5 23.5t56.5 -23.5t23.5 -56.5v-386l31 -22q35 -24 59.5 -71t24.5 -89q0 -81 -57 -138.5t-138 -57.5zM519 281v445q0 7 -7 7t-7 -7v-445q-49 -3 -83.5 -39.5t-34.5 -85.5q0 -51 36.5 -87.5t88.5 -36.5t88.5 36.5t36.5 87.5q0 49 -34.5 85.5t-83.5 39.5z
M451 700h40v-28h-40v28zM451 599h40v-28h-40v28zM451 499h40v-28h-40v28zM451 398h40v-28h-40v28z" />
    <glyph glyph-name="qingye" unicode="&#xe680;" 
d="M897 301q-6 5 -14 5q-5 0 -9 -2q-74 -37 -159 -37v0q-99 0 -182.5 48.5t-132 132t-48.5 181.5q0 63 22 124q2 4 2 8q0 9 -6.5 15t-15.5 6q-5 0 -9 -2q-105 -52 -166.5 -149.5t-61.5 -214.5q0 -110 54.5 -203.5t148 -147.5t203.5 -54q127 0 232 73.5t148 192.5q1 4 1 8
q0 9 -7 16v0zM523 53q-99 0 -182.5 49t-132 132.5t-48.5 181.5q0 91 42 170t117 130q-10 -41 -10 -87q0 -110 54.5 -203t148 -147.5t203.5 -54.5q65 0 127 21q-47 -88 -133 -140t-186 -52v0z" />
    <glyph glyph-name="gongju" unicode="&#xe65a;" 
d="M807 653h-147v49q0 20 -14 34.5t-35 14.5h-196q-20 0 -34.5 -14.5t-14.5 -34.5v-49h-147q-41 0 -69.5 -29t-28.5 -69v-123h785v123q0 40 -29 69t-70 29zM611 653h-196v24q0 11 7 18t18 7h147q10 0 17 -7t7 -18v-24zM513 309q20 0 34.5 14.5t14.5 34.5q0 13 -7 25h-84
q-7 -12 -7 -25q0 -20 14.5 -34.5t34.5 -14.5zM608 383q3 -13 3 -25q0 -40 -28.5 -69t-69.5 -29t-69.5 29t-28.5 69q0 12 3 25h-297v-270q0 -40 28.5 -69t69.5 -29h588q41 0 70 29t29 69v270h-298zM608 383z" />
    <glyph glyph-name="dami" unicode="&#xe693;" 
d="M524 704q0 -16 11.5 -28t28 -12t28 12t11.5 28t-11.5 27.5t-28 11.5t-28 -11.5t-11.5 -27.5zM610 618.5q0 -16.5 11.5 -28t27.5 -11.5t27.5 11.5t11.5 28t-11.5 28t-27.5 11.5t-27.5 -11.5t-11.5 -28zM950 519q-27 38 -79 42q-6 65 -69 103q-36 22 -66 50.5t-79 86.5
q-52 61 -127 63q-77 2 -137 -63l-2 -1q-58 -62 -84 -85.5t-65 -48.5q-64 -40 -65 -106q-64 -3 -97 -39q-19 -23 -30 -58.5t-3 -67.5q10 -47 54 -65q11 -5 24 -8q5 -42 5 -93q0 -94 -18 -178q-11 -53 -4 -83q8 -32 32 -45.5t65 -13.5t101 4q126 7 215 7q114 0 240 -12
q47 -4 65 -4q32 0 51 9.5t34 35.5q10 17 12.5 37.5t0.5 35.5t-7 46q-16 92 -16 168q0 40 5 84q27 7 45 31q27 34 26.5 81.5t-27.5 86.5zM269 624q42 27 70.5 53t87.5 89l2 2q45 48 100 47q52 -2 91 -46q52 -61 84 -92t72 -56q39 -23 45 -59l-51 -3q-139 -8 -256 -8
q-103 0 -235 6q-36 2 -53 3q1 38 43 64zM869 -26q-10 -17 -25.5 -19.5t-77.5 2.5q-129 12 -245 12q-90 0 -217 -7q-86 -6 -114.5 -2.5t-33.5 20.5q-4 19 4 60q19 89 19 189q0 51 -4 92q20 2 64 11q143 28 278 28q117 0 263 -31q53 -11 76 -13q-4 -40 -4 -80q0 -80 16 -176
q7 -39 7.5 -53.5t-6.5 -32.5v0zM912 381q-13 -16 -39 -16q-20 0 -83 13q-151 32 -273 32q-140 0 -288 -30q-56 -11 -76 -11v0q-18 0 -33 6q-20 9 -25 30t2.5 45t20.5 38q11 13 26.5 18t50.5 5q21 0 81 -3q134 -7 238 -7q118 0 259 9q56 3 75 3q29 0 40.5 -5t20.5 -17
q18 -26 19 -57t-16 -53z" />
    <glyph glyph-name="ganzhe-" unicode="&#xe626;" 
d="M786 814q-2 1 -6.5 4t-17 11t-24.5 15.5t-27.5 15.5t-27.5 13.5t-22.5 8.5t-14.5 1q-4 -3 -4 -7.5t2 -9.5l3 -4l-248 -376q-19 -11 -23 -17q-1 -2 -3 -9t-2 -12l-1 -6l-250 -379q-6 2 -21 -9q-3 -3 5 -11t27 -21.5t32 -22.5t37 -24.5t25 -15.5q28 -19 78 -46.5t62 -28.5
q5 0 5.5 6.5t-1.5 13.5l-3 7l246 372q18 14 20 18l8 23l247 376l16 5q5 3 4 6q-4 11 -34 37t-58 46zM609 315h-14h-6t-6.5 0.5t-6.5 0.5q-16 2 -22 3q-2 1 -7 2t-9 2t-7 3q-20 7 -24 10q-30 15 -51 40l11 -14q0 1 -2 3q-2 1 -3 2l-18 18q-42 48 -58 110l12 -32v0l3 2l3 -3
q1 0 3.5 -2t4.5 -4l9.5 -8t15.5 -13q15 -12 16 -13q3 -2 8.5 -6.5t8.5 -7.5l18 -13q2 -2 8 -6.5t10 -6.5q4 -4 18 -12q3 -3 10 -6.5t8 -4.5q4 -3 11 -6.5t8 -3.5q5 -3 18 -9q3 -1 8 -4t8 -4q2 -1 13 -6l13 -6v-4h-3t-9 -1z" />
    <glyph glyph-name="yumi-" unicode="&#xe627;" 
d="M543 236q7 7 19 20t46 47t64.5 61t67 51.5t60.5 30.5q56 14 34 -53q-3 -10 -32 -74q-1 -3 -2 -5q-9 -23 -22.5 -94t-15.5 -121q-2 -30 -9.5 -57.5t-24 -55.5t-48 -48.5t-75.5 -29.5q-6 -1 -17.5 -2t-43 -0.5t-60 5.5t-62.5 21t-57 41q-13 15 -23 30t-15 31.5t-8.5 28
t-4.5 30t-1 25.5t1 26t1 22q2 57 -39 194q-7 21 -9.5 32t-5.5 29t1 27.5t14 12.5q6 0 13 1t19.5 -4.5t27 -13.5t36 -25.5t45.5 -41t56.5 -60t69.5 -81.5zM614 -95q0 -10 -8.5 -17.5t-21.5 -7.5h-68q-12 0 -21 7.5t-9 17.5t9 17.5t21 7.5h68q13 0 21.5 -7.5t8.5 -17.5z
M542 305q95 106 179 168q-6 116 -32 211t-66 149.5t-86 54.5q-67 0 -118.5 -110t-64.5 -277q74 -55 188 -196z" />
    <glyph glyph-name="shuidao-" unicode="&#xe628;" 
d="M595 127v9v12q-1 42 -7 84q-9 62 -37 129l22 -63q-3 9 -4 14l-6 18q-12 35 -34 64l26 -43l1 3q25 61 41 133q-49 83 -96.5 151t-85.5 110.5t-72.5 73t-59.5 44.5t-44.5 19.5t-30.5 2.5t-13 -10q-5 -12 1.5 -27t21.5 -34.5t35 -45t43.5 -67t45.5 -91.5t42 -126t32 -164
q11 -10 18 -18l18 -20q5 -5 17 -20q28 -33 60 -84q30 -48 47 -87q6 -11 12 -25q3 16 7 32v26zM690 784q-12 -10 -20 -44q-6 -28 -10 -78q-2 -19 -7.5 -47.5t-10.5 -49.5t-13.5 -55.5t-11.5 -46.5q-34 -140 -105 -260l68 140q2 -6 4 -11l7 -21q24 -71 27 -160q44 57 86 89
q22 17 32 24q4 2 7 18q2 8 5 24q11 52 14 85q9 98 1 186q-10 104 -44 199l2 -9q0 1 -6 11q-13 22 -22 35l22 -38q-10 15 -25 9v0zM291 208q5 -5 14 -16t13 -16q2 -2 14 -17l5.5 -6.5t7.5 -10.5q3 -3 12.5 -15.5t14.5 -20.5l12 -18l13 -19q13 -20 48 -77q31 -56 43 -78
q2 -4 13 -25h169q4 9 22 46q24 45 32 59l9 15t8 13q17 26 18 29q26 36 40 53q7 11 21 26q1 1 21 24q1 1 5 5.5t6 6.5q7 8 11 11q6 8 11 12q9 8 11 10q13 14 21 21l21 19q2 2 9 8t11 10l9 8q1 1 4.5 3.5t4.5 4.5q6 4 16.5 13.5t14.5 12.5l28 25h-38q-10 0 -42 -4
q-12 -2 -55 -13q-41 -14 -62 -24q-55 -27 -95 -71q11 14 8 13q-10 -4 -39 -42q-1 -2 -3 -4q9 14 6 13q-10 -4 -39 -50q-3 -6 -7 -12l58 76l-15 -15q-80 -82 -114 -192l44 98q-1 -1 -5 -8q-15 -28 -19 -37q-31 -67 -37 -145q4 84 1.5 105t-11.5 40q-78 161 -213 272l132 -139
q-4 6 -33 41q-7 8 -36 37q-35 30 -39 33q-92 73 -207 97q26 -7 39 -10v0q-37 8 -74 12l48 -7q-3 0 -5 1q-29 4 -34 4q-7 1 -15 1h-1h-11h-3h-25l-47 -7q16 -8 42 -20l21 -11q2 -1 10.5 -5t13.5 -8q5 -3 14 -8t12 -7q1 -1 27 -19q5 -2 9.5 -5.5t10 -8t9.5 -7.5q5 -4 28 -24
q24 -20 58 -56v0z" />
    <glyph glyph-name="hetao-" unicode="&#xe629;" 
d="M369 130q-1 0 -3.5 1t-4.5 2q0 1 -2.5 2t-4.5 2q-15 10 -23 26l3 -4l-1 2q-2 5 -2 9q0 -3 0 -1v4v-1v1v2l1 3l-4 2l-13 5l-11 6l-10 8l-9 10l-8 11q0 1 -2 5l-3 6q-1 1 -2.5 5.5t-1.5 7.5l-2 13l-1 3l-3 2q-1 1 -5 3t-6 4q-1 1 -4.5 3.5t-4.5 4.5q-8 9 -9 10q-5 7 -6 10
q-6 10 -7 22q-1 -4 -1.5 -0.5t-0.5 8.5q-1 -2 -1 2v2v3v3v1v0v2v6q1 8 3 14q1 8 6 16l3 6q7 9 7 10q1 1 4 4.5t5 4.5q1 1 4.5 4t5.5 4q1 0 5 2.5t6 3.5l12 5l6 2l-1 6l-3 14v17l1 7q1 5 2 7q3 10 5 15l8 14l5 6q6 7 14 11h-3l6 4q2 2 4.5 3t5.5 2.5t4 2.5l3 2v3
q-3 12 -3 12.5t-0.5 3t-0.5 3.5v6q0 3 1.5 7.5t1.5 5.5t1.5 3.5l1.5 2.5l1 2.5t2 3.5q8 9 9 10l5 4l5 4q2 1 13 5q0 1 6 2l7 1l-7 -1h-2.5h-4.5q-11 -3 -13 -5l-6 -3l-6 -4l-10 -10q-1 -1 -2.5 -3.5l-1.5 -2.5q-3 -6 -3 -6.5t-2 -6t-2 -8.5l-1 -7q-1 -1 -0.5 -4l0.5 -3
q0 -4 2 -11q-9 -4 -12 -6l-8 -5l-6 -6q-3 -2 -7 -6l-2 -2.5t-4 -3.5q-8 -14 -9 -15q-8 -14 -10 -31l1 2l-2 -5v-17l2 -12l-8 -2q-1 -1 -13 -7q-2 -2 -4 -3t-4.5 -3t-3.5 -3l-6 -6t-4 -5q-1 -1 -9 -12q-3 -3 -7 -13q-5 -10 -6 -22q0 4 -1 -1q0 -3 -1 -5v-8v-1v-2v-1v-3
q1 -10 2 -14q2 -10 4 -15q2 -7 6 -13q2 -5 8 -13q2 -2 10 -11q1 -1 11 -9q4 -3 10 -6l2 -11q1 -2 1.5 -4.5t1.5 -5.5t2 -5t6 -13q2 -2 9 -12q1 -1 11 -10l12 -9l13 -7l11 -3v-1v-5q1 -5 3 -9q5 -9 11 -15t15 -11q1 -1 4 -2.5t4 -1.5t4 -1t4 -1q19 -5 35 2q2 0 3 0.5t2.5 1.5
t2.5 2q8 3 12 10q0 -1 8 7q-11 -10 -14 -11q-4 -3 -7 -4l-8 -3q-15 -5 -32 0zM580 842q-20 9 -38.5 25t-26.5 15q-10 0 -31 -18t-44 -29q-34 -16 -67.5 -34.5t-77 -47.5t-81 -60.5t-75 -73t-64 -85.5t-42.5 -98t-16 -111q0 -121 63 -219.5t170.5 -154.5t238.5 -62q4 0 13 13
t13 13t12 -13t12 -13q131 5 239 61.5t171.5 155t63.5 219.5q0 61 -17 118.5t-44.5 103t-66.5 87.5t-77.5 73t-83 58.5t-77.5 44.5t-67 32zM471 451q-3 -34 -24 -61t-52 -39q28 -16 44 -43t16 -59v-1q0 -31 -16 -58q16 -21 16 -48q-1 -33 -25 -56.5t-58 -23.5q-31 0 -54.5 21
t-26.5 52q-32 12 -52.5 38.5t-25.5 60.5q-26 13 -42 40t-16 60v0q0 37 21 67.5t55 44.5q-1 8 -1 17q0 34 17 62.5t45 43.5v6v8v0q0 34 24 58.5t58 24.5t58 -24.5t24 -58.5q0 -22 -12 -42q32 -40 27 -90zM746 135q-3 -32 -26.5 -53.5t-55.5 -21.5q-34 0 -58 24t-24 58
q0 27 15 48q-15 26 -15 58v0q0 32 15.5 59.5t42.5 43.5q-32 13 -52 40.5t-23 61.5v11q0 43 28 77q-12 19 -12 43q0 33 24 57t58 24t58 -24t24 -58q0 -7 -1 -14q29 -15 46 -43.5t17 -62.5q0 -9 -1 -18q34 -13 55 -43.5t21 -67.5q0 -32 -16 -60t-43 -44q-6 -34 -27.5 -59.5
t-52.5 -36.5zM844 340l-1 8q0 9 -3 17q-2 8 -9 18l1 1q-1 3 -3 5l-9 12q0 1 -4 5l-6 6q-1 0 -5.5 3.5t-6.5 5.5q-1 0 -6 2.5l-7 3.5l-9 3l2 12v17q0 1 -2 9q-1 7 -4 13q-2 12 -14 26l4 -5l-1 2q-2 2 -3 4l-3 3l-3 3q-3 4 -6 6l-7 6l-7 5q-3 2 -12 6q2 6 2 12v1v5l-1 7l-4 14
q0 1 -4 6q0 1 -1 3t-2 3q-10 10 -10 11l-6 4l-6 3q-3 2 -14 5h-7l-7 1l7 -1q6 -1 7 -2q11 -4 12 -5l6 -4l5 -4q1 0 9 -10q1 -1 2 -3t1 -3l3 -6q0 -1 1 -5.5t1 -7.5l1 -6q0 -1 -0.5 -3.5l-0.5 -2.5q0 -1 -3 -13l-1 -3l3 -2q1 -1 6.5 -3.5t7.5 -4.5l7 -4l5 -6q3 -2 6 -5
q0 -1 2 -3l3 -3q7 -13 7 -14q3 -5 6 -15q0 -2 1 -7l1 -7v-17l-2 -14l-1 -6l5 -2l12 -5l11 -6q3 -1 6.5 -4t3.5 -4q2 -1 5.5 -4.5l4 -4t7.5 -10.5q2 -3 5 -11q4 -8 5 -17l1 -9l1 -5v-2v0v-1v-3q-1 -11 -2 -13q-1 -10 -6 -19q2 -2 -9 -14h1l-1 -1l-8 -10q-2 -2 -5.5 -4.5
t-4.5 -3.5q-2 -1 -6 -3.5t-4 -3.5l-4 -2v-3l-2 -13q-1 -2 -2 -6t-2 -6l-3 -6l-3 -6l-7 -11l-9 -9l-10 -9l-12 -6l-12 -5l-4 -1v-4l1 -1v-2l-1 -5q-1 -6 -4 -11q-3 -7 -14 -14q0 -5 -20 -12q5 2 9 4h1l-2 -1q-1 0 -3.5 -1t-3.5 -2q-8 -2 -17 -2q-8 0 -16 2q-1 0 -7 3
q-3 1 -8 4q-2 1 -13 11q10 -11 12 -12q7 -6 16 -8l-1 -1q17 -7 35 -2q1 0 4 1t5 1q0 1 3 2t5 2q8 5 14 11t11 15q4 8 5 18l-1 -4v1l11 3l13 7l12 9l4.5 4.5l5.5 5.5q8 10 9 12q5 9 7 14q1 2 2.5 6.5l2.5 7.5l2 11l9 6q11 8 12 9q8 10 9 11q6 8 9 13q4 7 6 13t4 15q1 3 2 14
v3v1v2v1z" />
    <glyph glyph-name="baogao-1" unicode="&#xe62b;" 
d="M832 715v-739q0 -37 -26 -63t-64 -26v0h-527q-37 0 -63.5 26t-26.5 63v739q0 37 26.5 63.5t63.5 26.5h20q-4 -10 -4 -22q0 -22 16 -38.5t39 -16.5v0h386q22 0 38.5 16.5t16.5 38.5q0 11 -5 22h20v0q38 0 64 -26.5t26 -63.5v0zM726 8v122l-96 -122h96zM726 181v421h-495
v-621h338zM651 834q16 0 28 -12t12 -29v0q0 -17 -12 -28.5t-28 -11.5v0h-338q-16 0 -28 12t-12 28t12 28t28 13h115q0 22 15.5 38t38 16t38.5 -16t16 -38h115zM455 834h54q0 11 -8 19t-19 8t-19 -8t-8 -19zM292 260h311v-32h-311v32zM292 341h311v-32h-311v32zM292 98h190
v-32h-190v32zM292 179h190v-32h-190v32zM292 425h190v-31h-190v31zM292 506h190v-31h-190v31z" />
    <glyph glyph-name="celiang" unicode="&#xe648;" 
d="M614.5 589q-84.5 0 -144.5 -60.5t-60 -144.5t60 -144.5t144.5 -60.5t144.5 60.5t60 144.5t-60 144.5t-144.5 60.5zM614.5 230q-65.5 0 -109.5 44.5t-44 109.5t44 109.5t109.5 44.5t109.5 -44.5t44 -109.5t-44 -109.5t-109.5 -44.5zM614.5 845q-110.5 0 -205 -55
t-149.5 -149.5t-55 -205.5v-409h-205v-103h51v51h169q12 -22 36 -36.5t51 -14.5h410q127 0 217 90.5t90 216.5v205q0 111 -55 205.5t-149.5 149.5t-205 55zM973 230q0 -107 -74.5 -181.5t-181.5 -74.5h-410q-20 0 -35.5 14.5t-15.5 37.5v409q0 98 47.5 180.5t130 130.5
t181 48t181 -48t130 -130.5t47.5 -180.5v-205z" />
    <glyph glyph-name="biaoge" unicode="&#xe66d;" 
d="M896 768h-768q-26 0 -45 -19t-19 -45v-640q0 -26 19 -45t45 -19h768q26 0 45 19t19 45v640q0 26 -19 45t-45 19zM352 64h-224v160h224v-160zM352 288h-224v160h224v-160zM352 512h-224v160h224v-160zM608 64h-192v160h192v-160zM608 288h-192v160h192v-160zM608 512h-192
v160h192v-160zM896 64h-224v160h224v-160zM896 288h-224v160h224v-160zM896 512h-224v160h224v-160z" />
    <glyph glyph-name="area" unicode="&#xe62d;" 
d="M976 -128h-928q-20 0 -34 14t-14 34v928q0 20 14 34t34 14h928q20 0 34 -14t14 -34v-928v0q0 -20 -14 -34t-34 -14zM928 800h-832v-832h832v832zM208 752h176q20 0 34 -14t14 -34t-14 -34t-34 -14h-144v-144q0 -20 -14 -34t-34 -14t-34 14t-14 34v240h64zM144 256
q0 20 14 34t34 14t34 -14t14 -34v-144h144q20 0 34 -14t14 -34t-14 -34t-34 -14h-240v240zM640 752h240v-240q0 -20 -14 -34t-34 -14t-34 14t-14 34v144h-144q-20 0 -34 14t-14 34t14 34t34 14zM640 112h144v144v2q0 20 14 34t34 14t34 -14t14 -34v-2v-240h-240
q-20 0 -34 14t-14 34t14 34t34 14z" />
    <glyph glyph-name="icon_retractsvg" unicode="&#xe62e;" 
d="M512 -128q-139 0 -257 68.5t-186.5 186.5t-68.5 257t68.5 257t186.5 186.5t257 68.5t257 -68.5t186.5 -186.5t68.5 -257t-68.5 -257t-186.5 -186.5t-257 -68.5zM512 800v0q-113 0 -209 -55.5t-151.5 -151.5t-55.5 -209v0q0 -113 55.5 -209t151.5 -151.5t209 -55.5
t209 55.5t151.5 151.5t55.5 209v0q0 113 -55.5 209t-151.5 151.5t-209 55.5v0zM720 336h-291l67 -60v0q17 -15 17 -37q0 -19 -14.5 -33t-33.5 -14t-33 12v0l-160 144v0q-16 15 -16 36t16 36v0l160 144v0q14 12 32 12q14 12 32 12q20 0 34 -14t14 -33.5t-14 -33.5t-34 -15v0
l-67 -60h291q20 0 34 -14t14 -34t-14 -34t-34 -14z" />
    <glyph glyph-name="look" unicode="&#xe630;" 
d="M511 -128q-104 0 -198.5 40.5t-163 109t-109 163.5t-40.5 198v1v1q0 103 40.5 198t109 163.5t163 109t198.5 40.5t198.5 -40.5t163 -109t109 -163.5t40.5 -198v-1v-1q0 -103 -40.5 -198t-109 -163.5t-163 -109t-198.5 -40.5zM511 800q-113 0 -208.5 -55.5t-151 -151.5
t-55.5 -208v-1v0q0 -113 55.5 -209t151 -151.5t208.5 -55.5t208.5 56t151 151.5t55.5 208.5v0v0q0 113 -55.5 209t-151 151.5t-208.5 55.5zM719 336h-160v-160q-1 -19 -15 -32.5t-33 -13.5t-33 13.5t-15 32.5v160h-159q-20 0 -34 14t-14 34t14 34t34 14h159v160v2
q0 20 14 34t34 14t34 -14t14 -34v-2v-160h160q20 0 34 -14t14 -34t-14 -34t-34 -14z" />
    <glyph glyph-name="down" unicode="&#xe632;" horiz-adv-x="1843" 
d="M231 851l690 -670l699 679q16 15 43 25.5t48 10.5h1q54 0 92.5 -37.5t38.5 -90.5q0 -22 -10.5 -48t-26.5 -41l-790 -768q-16 -16 -43.5 -27.5t-50.5 -11.5v0h-1v0q-23 0 -50.5 11.5t-44.5 27.5v0l-790 768l1 1q-16 15 -26.5 41t-10.5 47q0 53 38.5 90.5t93.5 37.5
q60 0 99 -45z" />
    <glyph glyph-name="off" unicode="&#xe634;" 
d="M512 -128q-139 0 -257 68.5t-186.5 186.5t-68.5 257t68.5 257t186.5 186.5t257 68.5t257 -68.5t186.5 -186.5t68.5 -257t-68.5 -257t-186.5 -186.5t-257 -68.5zM512 800h-7q-113 0 -208.5 -55.5t-151.5 -151.5t-56 -209t56 -209t151.5 -151.5t208.5 -55.5h7
q111 2 205.5 58t149 151.5t54.5 206.5t-54.5 206.5t-149 151.5t-205.5 58zM688 160v0q-20 0 -34 14l-142 142l-142 -142q-14 -14 -34 -14t-34 14t-14 34t14 34l142 142l-142 142q-14 14 -14 34t14 34t34 14t34 -14l142 -142l142 142q14 14 34 14t34 -14t14 -34t-14 -34
l-142 -142l142 -142q14 -14 14 -34t-14 -34t-34 -14v0z" />
    <glyph glyph-name="meter" unicode="&#xe636;" 
d="M1024 -60q0 -28 -20 -48t-48 -20h-278v0q-7 0 -13 2q-7 -2 -14 -2v0h-583q-28 0 -48 20t-20 48v278q0 28 20 48t48 20h56q7 0 14 -1q6 1 13 1v0h84q7 0 14 -1q6 1 13 1v0h139q7 0 14 -1q7 1 13 1h1h83q7 0 14 -1q7 1 13 1h1h70v70q0 7 2 14q-2 7 -2 14v83q0 7 2 14
q-2 7 -2 14v0v139v0q0 7 2 13q-2 7 -2 14v84q0 6 2 13q-2 7 -2 14v0v56v0q0 28 20 48t48 20v0h278q28 0 48 -20t20 -48v-583q0 -7 -1 -13q1 -7 1 -14v0v-278zM651 218h-111v-167h-28v167h-83v-111h-28v111h-139v-167h-27v167h-84v-111h-27v111h-56v-278h583v278zM956 828
h-278v-56h111v-27h-111v-84h167v-27h-167v-139h111v-28h-111v-83h167v-28h-167v-111h278v583zM956 218h-278v-278h278v278z" />
    <glyph glyph-name="returunsvg" unicode="&#xe637;" 
d="M772 767l-373 -383l378 -388q19 -21 19 -51v0q0 -30 -20.5 -51.5t-50.5 -21.5q-12 0 -26.5 6t-22.5 14l-427 439q-9 9 -15 24.5t-6 28.5v0v0v0q0 32 21 53v0l427 439v0q9 8 23 14t26 6q30 0 50.5 -21.5t20.5 -51.5q0 -34 -24 -56z" />
    <glyph glyph-name="plus" unicode="&#xe638;" horiz-adv-x="1091" 
d="M1019 318h-403v-378q0 -28 -20.5 -47.5t-50 -19.5t-50.5 19.5t-21 47.5v378h-403q-29 0 -50 19.5t-21 47t21 47t50 19.5h403v378q0 28 21 47.5t50.5 19.5t50 -19.5t20.5 -47.5v-378h403q30 0 50.5 -19.5t20.5 -47t-20.5 -47t-50.5 -19.5z" />
    <glyph glyph-name="right" unicode="&#xe639;" 
d="M264 1l356 383l-361 388q-19 22 -19 50v1q0 30 20 51.5t48 21.5t47 -20l408 -439q9 -9 15 -24.5t6 -28.5v0v0v-1q0 -12 -6 -27.5t-15 -24.5l-408 -439v0q-8 -8 -21.5 -14t-25.5 -6q-28 0 -48 21.5t-20 51.5q0 34 24 56z" />
    <glyph glyph-name="search" unicode="&#xe63a;" 
d="M996 36q12 -12 20 -32t8 -36q0 -40 -28 -68t-68 -28q-16 0 -36 8t-32 20l-281 282q-38 -23 -95 -38.5t-100 -15.5v0q-159 0 -271.5 112.5t-112.5 271.5t112.5 271.5t271.5 112.5t271.5 -112.5t112.5 -271.5q0 -104 -54 -195zM384 800q-119 0 -203.5 -84.5t-84.5 -203.5
t84.5 -203.5t203.5 -84.5t203.5 84.5t84.5 203.5t-84.5 203.5t-203.5 84.5z" />
    <glyph glyph-name="shrink" unicode="&#xe63b;" horiz-adv-x="8312" 
d="M7743 -128h-7202q-110 0 -210 40t-172.5 108t-115.5 162t-43 197t43 197t115.5 161.5t172.5 108t210 40.5h7202q110 0 210 -40.5t172 -108t115 -161.5t43 -197t-43 -197t-115 -162t-172 -108t-210 -40z" />
    <glyph glyph-name="tool" unicode="&#xe63c;" horiz-adv-x="1109" 
d="M1057 -128h-86v759h86q22 0 37 -15.5t15 -37.5v-653v-1q0 -21 -15 -36.5t-37 -15.5zM191 -128v759h104q0 110 76 187.5t183.5 77.5t184 -77.5t76.5 -187.5h104v-759h-728zM554.5 790q-64.5 0 -110 -46.5t-45.5 -112.5h312q0 66 -46 112.5t-110.5 46.5zM0 -75v653
q0 22 15 37.5t37 15.5h87v-759h-87q-22 0 -37 15.5t-15 36.5v1z" />
    <glyph glyph-name="target" unicode="&#xe63d;" 
d="M976 336h-51q-16 -135 -123 -242t-242 -123v-51q0 -20 -14 -34t-34 -14t-34 14t-14 34v51q-135 16 -242 123t-123 242h-51q-20 0 -34 14t-14 34t14 34t34 14h51q16 135 123 242t242 123v51q0 20 14 34t34 14t34 -14t14 -34v-51q135 -16 242 -123t123 -242h51q20 0 34 -14
t14 -34t-14 -34t-34 -14zM736 432h92q-15 96 -93.5 174.5t-174.5 93.5v-92q0 -20 -14 -34t-34 -14t-34 14t-14 34v92q-96 -15 -174.5 -93.5t-93.5 -174.5h92q20 0 34 -14t14 -34t-14 -34t-34 -14h-92q15 -96 93.5 -174.5t174.5 -93.5v92q0 20 14 34t34 14t34 -14t14 -34v-92
q96 15 174.5 93.5t93.5 174.5h-92q-20 0 -34 14t-14 34t14 34t34 14zM512 336q-20 0 -34 14t-14 34t14 34t34 14t34 -14t14 -34t-14 -34t-34 -14z" />
    <glyph glyph-name="altitude-" unicode="&#xe63e;" 
d="M944 -73q-17 25 -24 41q-40 92 -55 156q-52 227 -74 366l-3 14q-12 76 -20 125q-6 35 -13.5 51.5t-23.5 16.5q-19 0 -40 -37q-14 -25 -25.5 -66t-16.5 -71t-13 -83q-6 -43 -8 -51q-4 -30 -13 -103l-3 -23q-52 213 -76 353l-2 12q-19 109 -28 157q-8 41 -17 60.5t-27 19.5
q-21 0 -48 -43q-19 -30 -34 -80.5t-21.5 -86.5t-16.5 -100q-7 -42 -10 -63q-11 -60 -19 -120q-10 -73 -22 -146l-3 12q-11 44 -15 66l-1 9q-10 58 -15 84q-3 15 -5.5 23.5t-9 17.5t-16.5 9q-16 0 -33 -27q-23 -37 -40 -150q-4 -23 -6 -34q-3 -20 -10 -67q-8 -57 -13.5 -89.5
t-18.5 -79.5t-29 -74l-13 -23h898zM114 -67q29 65 53 232q6 44 10 66q3 18 6 35q16 106 36 138q2 2 4 6q2 -8 4 -18q6 -31 15 -84l1 -9q4 -23 15 -68q14 -56 17 -86q-12 -60 -31 -119l-3 -9l-12 -34l-4 -9q-1 -4 -3 -7q0 -2 -5 -11q-6 -11 -13 -23h-90zM240 -67q2 3 4 9
q3 6 4 9l2 4q13 30 23 60v2q5 11 17 57.5t15 64.5q17 78 38 229q12 80 19 119q2 14 10 63q9 61 15.5 95.5t20.5 83.5t31 77q13 20 22 28q7 -10 15 -55q10 -53 28 -156l2 -12q26 -150 95 -431q-10 -70 -29 -138q-16 -55 -39 -109h-293zM568 -67q23 49 39.5 117t22.5 112
t15 121q9 72 14 101q2 13 7 52q23 160 51 209q7 11 12 18q4 -13 9 -39q8 -49 21 -125l2 -14q22 -141 75 -368q15 -68 56 -161q5 -11 12 -23h-336z" />
    <glyph glyph-name="right_" unicode="&#xe642;" 
d="M512 -128q139 0 257 68.5t186.5 186.5t68.5 257t-68.5 257t-186.5 186.5t-257 68.5t-257 -68.5t-186.5 -186.5t-68.5 -257t68.5 -257t186.5 -186.5t257 -68.5zM512 800v0q113 0 209 -55.5t151.5 -151.5t55.5 -209v0q0 -113 -55.5 -209t-151.5 -151.5t-209 -55.5
t-209 55.5t-151.5 151.5t-55.5 209v0q0 113 55.5 209t151.5 151.5t209 55.5v0zM304 336h291l-67 -60v0q-17 -15 -17 -37q0 -19 14.5 -33t33.5 -14t33 12v0l160 144v0q16 15 16 36t-16 36v0l-160 144v0q-14 12 -32 12q-14 12 -32 12q-20 0 -34 -14t-14 -33.5t14 -33.5t34 -15
v0l67 -60h-291q-20 0 -34 -14t-14 -34t14 -34t34 -14z" />
    <glyph glyph-name="jingqingqidai-" unicode="&#xe643;" horiz-adv-x="1160" 
d="M953 520q-1 -17 -3 -33q-21 -142 -122 -234.5t-236 -92.5h-58l-11 -11q31 -57 84 -90.5t116 -33.5h58l115 -120q11 -12 28 -12v0v0q16 0 27 11t11 27v0v98q81 17 134 85.5t53 159.5q0 92 -56 162t-140 84zM583 877h-264q-83 0 -154 -44.5t-112 -120.5t-41 -166
q0 -122 72 -213.5t182 -112.5v-139v0q0 -19 13 -32t31 -13q19 0 33 14l158 165h82q114 0 199.5 79t103.5 201q4 27 4 51q0 90 -41 166t-112 120.5t-154 44.5zM232 464q-27 0 -46 19.5t-19 46.5t19 46.5t46 20.5q27 -1 46.5 -20.5t19.5 -46.5t-19.5 -46.5t-46.5 -19.5z
M451 464q-27 0 -46.5 19.5t-19.5 47t19.5 47t46.5 19.5q27 -1 46 -20.5t19 -46.5t-19 -46.5t-46 -19.5zM670 464q-27 0 -46.5 19.5t-19.5 47t19.5 47t46.5 19.5t46.5 -19.5t19.5 -47t-19.5 -47t-46.5 -19.5z" />
    <glyph glyph-name="NOTEPAD" unicode="&#xe641;" 
d="M918 -128h-812q-19 0 -33 14t-14 34v832q0 20 14 34t33 14h78v-48q0 -40 27.5 -68t66.5 -28t66 28t27 68v48h47v-48q0 -40 27.5 -68t66.5 -28t66.5 28t27.5 68v48h47v-48q0 -40 27 -68t66 -28t66.5 28t27.5 68v48h78q19 0 33 -14t14 -34v-832q0 -20 -14 -34t-33 -14z
M793 528h-562q-20 0 -33.5 -14t-13.5 -34t13.5 -34t33.5 -14h562q20 0 33.5 14t13.5 34t-13.5 34t-33.5 14zM793 320h-562q-20 0 -33.5 -14t-13.5 -34t13.5 -34t33.5 -14h562q20 0 33.5 14t13.5 34t-13.5 34t-33.5 14zM801 112h-578q-16 0 -27.5 -11.5t-11.5 -28.5
t11.5 -28.5t27.5 -11.5h578q16 0 27.5 11.5t11.5 28.5t-11.5 28.5t-27.5 11.5zM746.5 704q-19.5 0 -33.5 14t-14 34v96q0 20 14 34t33.5 14t33 -14t13.5 -34v-96q0 -20 -13.5 -34t-33 -14zM512 704q-19 0 -33 14t-14 34v96q0 20 14 34t33 14t33 -14t14 -34v-96
q0 -20 -14 -34t-33 -14zM277.5 704q-19.5 0 -33 14t-13.5 34v96q0 20 13.5 34t33 14t33.5 -14t14 -34v-96q0 -20 -14 -34t-33.5 -14z" />
    <glyph glyph-name="tuli" unicode="&#xe645;" horiz-adv-x="2048" 
d="M2048 282h-505q-24 -116 -98 -209.5t-184.5 -147t-236.5 -53.5t-236.5 53.5t-184.5 147t-98 209.5h-505v204h505q24 116 98 209.5t184.5 147t236.5 53.5t236.5 -53.5t184.5 -147t98 -209.5h505v-204z" />
    <glyph glyph-name="weibiaoti-" unicode="&#xe64a;" 
d="M763 772q2 4 2 9q0 10 -7 17.5t-17 7.5q-17 0 -23 -15l-45 -106v0q24 -7 46 -18zM614 695v47q0 7 -5 11.5t-11.5 4.5t-11.5 -4.5t-5 -11.5v0v-48q16 2 33 1zM409 605q11 13 23 24l-34 33q-4 5 -11 5q-6 0 -11 -5t-5 -12q0 -6 4 -11zM480 664h1q12 7 26 13q8 3 18 6
l-42 106q-7 14 -22 14q-11 0 -18 -7.5t-7 -17.5q0 -4 1 -7zM253 558l105 -45h1q7 24 18 45l-105 45q-4 1 -9 1q-10 0 -17 -7t-7 -17q0 -16 14 -22zM824 563q12 -21 20 -45l106 43q13 7 13 22q0 10 -7 17.5t-17 7.5q-4 0 -8 -1l-106 -43zM902 430q7 0 11.5 5t4.5 11t-4.5 11
t-11.5 6l-47 -1q1 -16 0 -32h47zM790 612l33 33q4 5 4 12q0 6 -4.5 11t-11.5 5t-11 -4l-34 -34q12 -11 24 -23zM441 111q-2 -4 -2 -8q0 -10 7.5 -17.5t17.5 -7.5q15 0 22 14l45 106v1q-24 6 -45 18zM724 219v0q-22 -11 -45 -19l43 -106q6 -15 22 -15q10 0 17.5 7t7.5 17
q0 5 -2 10zM302 454q-7 0 -12 -5t-5 -12t5 -11.5t12 -4.5v0h47v20v13h-47zM795 278q-10 -13 -22 -24l33 -33q5 -5 11.5 -5t11.5 5t5 11.5t-5 11.5zM590 189v-48q0 -6 5 -11t11.5 -5t11.5 5t5 11v0v48q-16 -1 -33 0zM415 271l-34 -33q-4 -5 -4 -11q0 -7 5 -11.5t12 -4.5
q6 0 11 4l33 33q-12 11 -23 23zM380 320q-12 22 -19 45l-106 -43q-14 -7 -14 -22q0 -10 7 -17t17 -7q4 0 8 1l106 43h1zM951 325l-105 45h-1q-7 -23 -18 -45l105 -44q5 -2 10 -2q10 0 17 7t7 17q0 16 -15 22zM787 516q-21 52 -75 89t-110 37q-83 0 -141.5 -58.5
t-58.5 -141.5q0 -39 15 -75q21 -51 75 -87.5t110 -36.5q82 0 140.5 58.5t58.5 140.5q0 39 -14 74zM644 585q-1 -6 -6.5 -10.5t-11.5 -4.5q-2 0 -4 1q-14 3 -28 3q-24 0 -46 -9q-20 -8 -40 -27.5t-28 -39.5q-10 -23 -10 -49q0 -24 9 -46q1 -4 1 -8q0 -8 -5.5 -13.5
t-12.5 -5.5q-14 0 -18 13q-12 29 -12 60q0 33 13 64q26 62 88 87q30 12 61 12q18 0 36 -4q6 -2 10.5 -7.5t4.5 -11.5q0 -2 -1 -4zM169 294q-3 -24 -31 -73t-54 -102t-26 -90q0 -46 32.5 -78.5t78.5 -32.5t78.5 32.5t32.5 78.5q0 38 -26 91t-54 101.5t-31 72.5zM169 -46
q-31 0 -53 22t-22 53q0 18 10.5 46t20.5 47t29 53q8 14 15 26q4 -7 15 -26q19 -34 29 -52.5t20.5 -46.5t10.5 -47q0 -31 -22 -53t-53 -22z" />
    <glyph glyph-name="jingzhuntoufang" unicode="&#xe73d;" 
d="M839 406q0 13 -9 22t-21.5 9t-21.5 -9t-9 -22q0 -6 2 -12q5 -31 5 -62q0 -142 -93 -234.5t-234.5 -92.5t-234 92.5t-92.5 234.5t92.5 234.5t234.5 92.5q40 0 60 -4v1h3q12 0 20.5 8.5t8.5 20.5q0 10 -6.5 18t-16.5 10v2q-33 6 -70 6q-105 -1 -194.5 -53t-141.5 -141.5
t-52 -195t52 -194.5t141.5 -141t195 -52t195 52t141.5 141t52 195q0 34 -8 74h1zM453 457q1 0 2 -0.5t2 -0.5q12 0 21 9t9 21.5t-8.5 21.5t-21.5 9v1q-77 0 -131.5 -54.5t-54.5 -131.5t54.5 -131.5t131.5 -54.5t131.5 54t54.5 131v3q0 12 -9 21t-21.5 9t-21.5 -9t-9 -21v-2
v0q0 -57 -33.5 -91t-91.5 -34t-91.5 34t-33.5 91t32.5 90t88.5 35zM954 642l-171 15l-15 172l-61 -62l-124 -110v-152l-171 -157l33 -47l185 170h153l124 124zM750 518h-106v107l78 77v-106h106l-78 -78v0z" />
    <glyph glyph-name="tudipinggu" unicode="&#xe685;" 
d="M807 764q18 0 24 -16q3 -3 4 -6l147 -328q4 -9 0.5 -19t-13 -14.5t-19.5 -0.5t-15 13l-120 276l-119 -275q-5 -10 -14.5 -14t-19.5 0t-14 14t0 20l128 299h-225v-699l179 -77q24 -10 22.5 -17t-26.5 -7h-451q-26 0 -27.5 7t22.5 17l179 77v698l-218 1l137 -299
q4 -9 0.5 -19t-13.5 -14.5t-20 -0.5t-14 13l-128 276l-112 -275q-4 -9 -13.5 -13.5t-19.5 -0.5t-14 14t0 19l134 335q5 14 20 16h5v0h253q-7 14 -7 30q0 25 18 43t43.5 18t43.5 -18t18 -43q0 -16 -8 -30h253zM810.5 176q-63.5 0 -110.5 42t-54 105h328q-7 -63 -53.5 -105
t-110 -42zM360 323q-7 -63 -54 -105t-110 -42t-110 42t-54 105h328z" />
    <glyph glyph-name="tianqitubiao_yin" unicode="&#xe650;" 
d="M201 114q-77 0 -131.5 54.5t-54.5 130.5q0 66 41 116.5t104 65.5q-2 11 -2 22v0q0 53 37 90t89 37q35 0 65 -18q39 53 98 82t126 29q104 0 183 -68t95 -170q72 -5 122.5 -58.5t50.5 -127.5q0 -76 -54 -130.5t-130 -54.5h-639zM284 577q-30 0 -51.5 -21.5t-21.5 -52.5
q0 -17 7 -32q3 -6 3 -12q0 -11 -7.5 -19t-17.5 -8q-54 -2 -90.5 -40.5t-36.5 -92.5t38.5 -93t93.5 -39h639q54 0 92.5 39t38.5 93q0 55 -39 94t-94 39h-9h-2q-10 0 -18 7t-8 18q-6 89 -72 151t-156 62q-61 0 -112.5 -29t-83.5 -81q-7 -13 -22 -13q-11 0 -19 8q-9 9 -24 15.5
t-28 6.5v0v0z" />
    <glyph glyph-name="tianqitubiao_zhongyu" unicode="&#xe651;" 
d="M313 65l-71 -70q-7 -7 -7 -16.5t7 -16t16.5 -6.5t16.5 6l70 71q6 6 6 16q0 9 -6.5 16t-15.5 7q-10 0 -16 -7zM591 65l-70 -70q-7 -7 -7 -16.5t6.5 -16t16 -6.5t16.5 6l70 71q7 6 7 16q0 9 -7 16t-16 7t-16 -7zM254.5 224.5q-6.5 6.5 -16 6.5t-16.5 -7l-70 -70
q-7 -7 -7 -16.5t6.5 -16t16.5 -6.5v0v0q9 0 16 6l71 71q6 7 6 16.5t-6.5 16zM533 224.5q-7 6.5 -16.5 6.5t-15.5 -7l-71 -70q-7 -7 -7 -16.5t7 -16t16.5 -6.5t16.5 6l70 71q7 7 7 16.5t-7 16zM811.5 224.5q-6.5 6.5 -16 6.5t-16.5 -7l-70 -70q-7 -7 -7 -16.5t6.5 -16
t16.5 -6.5v0q9 0 16 6l70 71q7 7 7 16.5t-6.5 16zM787 261h-610q-67 0 -114 47t-47 113t47 113t113 48q9 116 94.5 195.5t202.5 79.5q79 0 147 -38.5t109 -106.5q28 8 58 8q95 0 162 -67.5t67 -162.5t-67 -162t-162 -67zM177 536q-48 0 -81.5 -33.5t-33.5 -81t33.5 -81
t81.5 -33.5h610q76 0 130 53.5t54 129.5t-54 130t-130 54q-31 0 -62 -11l-19 -7l-9 18q-32 63 -92.5 100t-131.5 37q-105 0 -179 -74t-74 -178v-27l-26 3q-9 1 -17 1z" />
    </font>
</defs>
</svg>
